<?xml version="1.0" encoding="UTF-8"?>
<svg id="_x31__px" xmlns="http://www.w3.org/2000/svg" version="1.1" viewBox="0 0 512 512">
  <!-- Generator: Adobe Illustrator 29.1.0, SVG Export Plug-In . SVG Version: 2.1.0 Build 142)  -->
  <defs>
    <style>
      .st0 {
        fill: #232444;
      }
    </style>
  </defs>
  <path class="st0" d="M298.7,193.9l187.9,37.3c15.1,3.2,25.4,16,25.4,31.1v217.6c0,17.7-14.3,32-32,32h-192c6,0,10.7-4.7,10.7-10.7v-10.7h181.3c5.8,0,10.7-4.7,10.7-10.7v-217.6c0-4.9-3.4-9.4-8.3-10.5l-183.7-36.3v-21.8Z"/>
  <path class="st0" d="M416,298.7c6,0,10.7,4.7,10.7,10.7s-4.7,10.7-10.7,10.7h-42.7c-6,0-10.7-4.7-10.7-10.7s4.7-10.7,10.7-10.7h42.7Z"/>
  <path class="st0" d="M416,362.7c6,0,10.7,4.7,10.7,10.7s-4.7,10.7-10.7,10.7h-42.7c-6,0-10.7-4.7-10.7-10.7s4.7-10.7,10.7-10.7h42.7Z"/>
  <path class="st0" d="M416,426.7c6,0,10.7,4.7,10.7,10.7s-4.7,10.7-10.7,10.7h-42.7c-6,0-10.7-4.7-10.7-10.7s4.7-10.7,10.7-10.7h42.7Z"/>
  <path class="st0" d="M298.7,501.3c0,6-4.7,10.7-10.7,10.7s-10.7-4.7-10.7-10.7V202.7c0-3.2,1.5-6.2,3.8-8.3,2.6-1.9,5.8-2.8,9-2.1l8.5,1.7v307.4Z"/>
  <path class="st0" d="M277.3,490.7v10.7c0,6,4.7,10.7,10.7,10.7h-85.3c6,0,10.7-4.7,10.7-10.7v-10.7h64Z"/>
  <path class="st0" d="M224,106.7c6,0,10.7,4.7,10.7,10.7s-4.7,10.7-10.7,10.7h-42.7c-6,0-10.7-4.7-10.7-10.7s4.7-10.7,10.7-10.7h42.7Z"/>
  <path class="st0" d="M234.7,181.3c0,6-4.7,10.7-10.7,10.7h-42.7c-6,0-10.7-4.7-10.7-10.7s4.7-10.7,10.7-10.7h42.7c6,0,10.7,4.7,10.7,10.7Z"/>
  <path class="st0" d="M224,234.7c6,0,10.7,4.7,10.7,10.7s-4.7,10.7-10.7,10.7h-42.7c-6,0-10.7-4.7-10.7-10.7s4.7-10.7,10.7-10.7h42.7Z"/>
  <path class="st0" d="M224,298.7c6,0,10.7,4.7,10.7,10.7s-4.7,10.7-10.7,10.7h-42.7c-6,0-10.7-4.7-10.7-10.7s4.7-10.7,10.7-10.7h42.7Z"/>
  <path class="st0" d="M128,309.3c0,6-4.7,10.7-10.7,10.7h-42.7c-6,0-10.7-4.7-10.7-10.7s4.7-10.7,10.7-10.7h42.7c6,0,10.7,4.7,10.7,10.7Z"/>
  <path class="st0" d="M117.3,106.7c6,0,10.7,4.7,10.7,10.7s-4.7,10.7-10.7,10.7h-42.7c-6,0-10.7-4.7-10.7-10.7s4.7-10.7,10.7-10.7h42.7Z"/>
  <path class="st0" d="M117.3,170.7c6,0,10.7,4.7,10.7,10.7s-4.7,10.7-10.7,10.7h-42.7c-6,0-10.7-4.7-10.7-10.7s4.7-10.7,10.7-10.7h42.7Z"/>
  <path class="st0" d="M117.3,234.7c6,0,10.7,4.7,10.7,10.7s-4.7,10.7-10.7,10.7h-42.7c-6,0-10.7-4.7-10.7-10.7s4.7-10.7,10.7-10.7h42.7Z"/>
  <path class="st0" d="M192,394.7c0-6-4.9-10.7-10.7-10.7h-64c-6,0-10.7,4.7-10.7,10.7v96h-21.3v-96c0-17.7,14.3-32,32-32h64c17.7,0,32,14.3,32,32v96h-21.3v-96Z"/>
  <path class="st0" d="M106.7,490.7h106.7v10.7c0,6-4.7,10.7-10.7,10.7h-106.7c-6,0-10.7-4.7-10.7-10.7v-10.7h21.3Z"/>
  <path class="st0" d="M37.3,4.3l234.5,35.6c15.6,2.6,26.9,15.8,26.9,31.6v122.5l-8.5-1.7c-3.2-.6-6.4.2-9,2.1-2.3,2.1-3.8,5.1-3.8,8.3V71.5c0-5.3-3.8-9.8-9-10.7L33.9,25.4c-.6-.2-1.3-.2-1.9-.2-2.6,0-4.9.9-6.8,2.6-2.6,2.1-3.8,4.9-3.8,8.1v444.2c0,6,4.9,10.7,10.7,10.7h53.3v10.7c0,6,4.7,10.7,10.7,10.7H32c-17.7,0-32-14.3-32-32V35.8c0-9.4,4.1-18.3,11.3-24.3,7.3-6.2,16.6-8.7,26-7.3Z"/>
</svg>