<?xml version="1.0" encoding="UTF-8"?>
<svg id="Layer_1" xmlns="http://www.w3.org/2000/svg" version="1.1" viewBox="0 0 41 40">
  <!-- Generator: Adobe Illustrator 29.1.0, SVG Export Plug-In . SVG Version: 2.1.0 Build 142)  -->
  <defs>
    <style>
      .st0 {
        fill: none;
        stroke: #232444;
        stroke-linecap: round;
        stroke-linejoin: round;
      }
    </style>
  </defs>
  <path class="st0" d="M38.9,10.3c0-.3-.2-.6-.3-.8-.2-.3-.4-.5-.7-.6l-5.7,5.7c-.3.3-.6.5-.9.6-.4.2-.7.2-1.1.2s-.8,0-1.1-.2c-.4-.2-.7-.4-.9-.6l-2.2-1.9c-.5-.5-.8-1.3-.8-2s.3-1.5.8-2l5.7-5.7c-.1-.3-.3-.6-.5-.8-.2-.2-.5-.4-.8-.5-2-.4-4.1-.2-6,.5-1.9.7-3.6,2-4.8,3.6-1.2,1.6-2,3.5-2.2,5.6-.2,2,.2,4.1,1.1,5.9l-15.6,15.5c-.3.3-.5.6-.6.9-.1.4-.2.7-.2,1.1s0,.8.2,1.1c.1.4.4.7.6.9l1,1c.3.3.6.5.9.6.4.1.7.2,1.1.2s.8,0,1.1-.2c.4-.1.7-.4.9-.6l15.6-15.6c1.8.9,3.8,1.2,5.8,1,2-.2,3.9-1,5.5-2.2,1.6-1.2,2.8-2.9,3.5-4.8.7-1.9.9-3.9.5-5.9Z"/>
</svg>