<?xml version="1.0" encoding="UTF-8"?>
<svg id="Layer_1" xmlns="http://www.w3.org/2000/svg" version="1.1" viewBox="0 0 37 37">
  <!-- Generator: Adobe Illustrator 29.1.0, SVG Export Plug-In . SVG Version: 2.1.0 Build 142)  -->
  <defs>
    <style>
      .st0 {
        fill: #232444;
      }
    </style>
  </defs>
  <g id="Page-3">
    <g id="vectorized">
      <g id="TUR--Turkey">
        <path id="Combined-Shape" class="st0" d="M17.5,10c-4.7,0-8.5,3.8-8.5,8.5s3.8,8.5,8.5,8.5,2-.2,2.9-.5c-4.4,0-7.9-3.6-7.9-8s3.5-7.9,7.9-8c-.9-.3-1.9-.5-2.9-.5ZM22.9,11.9c-.8-.3-1.6-.4-2.4-.4-3.9,0-7,3.1-7,7s3.1,7,7,7,1.7-.1,2.4-.4c.5-.2.9.5.5.9-1.7,1.3-3.7,2.1-5.9,2.1-5.2,0-9.5-4.3-9.5-9.5s4.3-9.5,9.5-9.5,4.3.7,5.9,2.1c.4.4,0,1.1-.5.9Z"/>
        <path id="Oval" class="st0" d="M18.5,37C8.3,37,0,28.7,0,18.5S8.3,0,18.5,0s18.5,8.3,18.5,18.5-8.3,18.5-18.5,18.5ZM18.5,36c9.7,0,17.5-7.8,17.5-17.5S28.2,1,18.5,1,1,8.8,1,18.5s7.8,17.5,17.5,17.5Z"/>
        <path id="Star-53" class="st0" d="M25.6,19.5c0-.2.3-.3.5-.3l1.4.2-1-1c-.1-.2-.2-.4,0-.6l.6-1.3-1.3.6c-.2,0-.4,0-.6,0l-1-1,.2,1.4c0,.2,0,.4-.3.5l-1.2.7,1.4.2c.2,0,.4.2.4.4l.2,1.4.7-1.2ZM25.1,22.5c-.2.4-.8.3-.9-.1l-.4-2.5-2.5-.4c-.5,0-.6-.7-.1-.9l2.2-1.2-.3-2.5c0-.5.5-.8.8-.4l1.8,1.7,2.2-1.1c.4-.2.9.2.7.7l-1.1,2.2,1.7,1.8c.3.3,0,.9-.4.8l-2.5-.3-1.2,2.2Z"/>
      </g>
    </g>
  </g>
</svg>