<?xml version="1.0" encoding="UTF-8"?>
<svg id="Capa_1" xmlns="http://www.w3.org/2000/svg" version="1.1" viewBox="0 0 512 512">
  <!-- Generator: Adobe Illustrator 29.1.0, SVG Export Plug-In . SVG Version: 2.1.0 Build 142)  -->
  <defs>
    <style>
      .st0 {
        fill: #232444;
      }
    </style>
  </defs>
  <path class="st0" d="M507.1,411l-56-72.8c-3.3-4.3-8.5-6.8-13.9-6.8h-76.9l49.7-64.7c4.8-6.3,4.8-15.1,0-21.3l-56-72.8c-3.3-4.3-8.5-6.8-13.9-6.8h-76.9l49.7-64.7c4.8-6.3,4.8-15.1,0-21.3L256.9,6.8C253.7,2.6,248.5,0,243.1,0H18.8C9.2,0,1.3,7.9,1.3,17.5v56c0,4.1,3.4,7.5,7.5,7.5s7.5-3.4,7.5-7.5V17.5c0-1.4,1.1-2.5,2.5-2.5h171.1l56.8,73.8c.7.9.7,2.2,0,3l-56.8,73.8H16.3v-62.2c0-4.1-3.4-7.5-7.5-7.5s-7.5,3.4-7.5,7.5v391c0,9.6,7.9,17.5,17.5,17.5h224.7c4.1,0,7.5-3.4,7.5-7.5s-3.4-7.5-7.5-7.5H18.8c-1.4,0-2.5-1.1-2.5-2.5v-148.2h364.8l57.5,73.8c.7.9.7,2.2,0,3l-56.8,73.8h-108.4c-4.1,0-7.5,3.4-7.5,7.5s3.4,7.5,7.5,7.5h163.7c5.4,0,10.6-2.6,13.9-6.8l56-72.8c4.8-6.3,4.8-15.1,0-21.3h0ZM342.1,181.6l56,72.8c.7.9.7,2.2,0,3l-56.8,73.8h-37.6l49.7-64.7c4.8-6.3,4.8-15.1,0-21.3l-49.7-64.7h36.3c.8,0,1.5.4,2,1h0ZM16.3,331.3v-150.7h268.5l56.8,73.8c.7.9.7,2.2,0,3l-56.8,73.8H16.3ZM258.6,101c4.8-6.3,4.8-15.1,0-21.3L208.8,15h34.3c.8,0,1.5.4,2,1l56,72.8c.7.9.7,2.2,0,3l-56.8,73.8h-35.5l49.7-64.7ZM495.2,423.2l-56,72.8c-.5.6-1.2,1-2,1h-36.3l49.7-64.7c4.8-6.3,4.8-15.1,0-21.4l-50.4-64.6h37c.8,0,1.5.4,2,1l56,72.8c.7.9.7,2.2,0,3h0Z"/>
  <path class="st0" d="M72.4,132.6l5.6-14.6h37.4l5.5,14.6c1.1,3,4,4.9,7,4.9s1.8-.2,2.6-.5c3.9-1.5,5.8-5.8,4.4-9.7l-29.5-78.1c0,0,0-.1,0-.2-1.4-3.5-4.8-5.8-8.6-5.8h0c-3.8,0-7.2,2.3-8.6,5.8,0,0,0,.1,0,.2l-29.7,78.1c-1.5,3.9.5,8.2,4.3,9.7,3.9,1.5,8.2-.5,9.7-4.3ZM96.8,68.6l13,34.4h-26l13.1-34.4Z"/>
  <path class="st0" d="M115.8,250.4c3.4-4.4,5.4-9.8,5.4-15.8,0-14.2-11.5-25.7-25.7-25.7h-23c-4.1,0-7.5,3.4-7.5,7.5v36.5h0v42.7c0,2,.8,3.9,2.2,5.3,1.4,1.4,3.3,2.2,5.3,2.2h0s21.2,0,27,0c15.9,0,28.8-12.9,28.8-28.8s-5-18.6-12.5-23.8h0ZM95.5,223.9c5.9,0,10.7,4.8,10.7,10.7s-4.8,10.7-10.7,10.7-4.9,0-8.4,0h-7.1v-21.5h15.5ZM99.5,288c-3.6,0-12.8,0-19.5,0v-27.7c2.2,0,4.7,0,7.1,0h12.4c7.6,0,13.8,6.2,13.8,13.8s-6.2,13.8-13.8,13.8Z"/>
  <path class="st0" d="M104,389.6c6.4,0,12.6,1.9,17.9,5.5,3.4,2.3,8.1,1.4,10.4-2s1.4-8.1-2-10.4c-7.8-5.3-16.9-8-26.3-8-26,0-47.1,21.1-47.1,47.1s21.1,47.1,47.1,47.1,19.5-3.4,26.7-9.8c1.4-1.3,2.7-2.6,4-4.1,2.7-3.2,2.2-7.9-.9-10.6-3.2-2.7-7.9-2.2-10.6.9-.8.9-1.6,1.8-2.5,2.5-4.4,4-10.1,6-16.7,6-17.7,0-32.1-14.4-32.1-32.1,0-17.7,14.4-32.1,32.1-32.1h0Z"/>
</svg>