<?xml version="1.0" encoding="UTF-8"?>
<svg id="Layer_1" xmlns="http://www.w3.org/2000/svg" version="1.1" viewBox="0 0 512 512">
  <!-- Generator: Adobe Illustrator 29.1.0, SVG Export Plug-In . SVG Version: 2.1.0 Build 142)  -->
  <defs>
    <style>
      .st0 {
        fill: #232444;
      }
    </style>
  </defs>
  <g id="Layer_4">
    <g>
      <path class="st0" d="M148.7,221.8h27.3v83.6c0,15.7,12.8,28.6,28.6,28.6h183.5c15.7,0,28.6-12.8,28.6-28.6v-83.6h36.9c5.1,0,9.6-3.2,11.8-8.4,2.3-5.6,1.3-12-2.6-15.9L315.1,48.7c-7.8-7.8-20.3-8.1-27.9-.5l-147.7,149.6c-3.9,3.8-4.9,10.1-2.6,15.7,2.1,5.2,6.7,8.4,11.8,8.4h0ZM321.4,317.6h-42.2v-67.6c0-1.9,1.6-3.5,3.5-3.5h35.1c1.9,0,3.5,1.6,3.5,3.5v67.6h0ZM400.4,305.4c0,6.7-5.5,12.2-12.2,12.2h-50.4v-67.6c0-11-8.9-19.9-19.9-19.9h-35.1c-11,0-19.9,8.9-19.9,19.9v67.6h-58.2c-6.7,0-12.2-5.5-12.2-12.2v-89.3l108.7-108.8,101.2,101.2c-1.2,1.4-2,3.2-2,5.2v91.8h0ZM298.8,59.7c1.2-1.3,3.4-.7,4.7.5l144.2,145.2h-25.2l-109.7-109.7c-6.4-6.4-16.7-6.4-23.1,0l-109.7,109.7h-25L298.8,59.7Z"/>
      <path class="st0" d="M56.1,284.6c-3.2-3.2-8.4-3.2-11.6,0s-3.2,8.4,0,11.6l29.8,29.8c3.6,3.6,8.4,5.6,13.5,5.6s9.9-2,13.5-5.6l29.8-29.8c3.2-3.2,3.2-8.4,0-11.6s-8.4-3.2-11.6,0l-23.5,23.5V68.8l23.5,23.5c1.6,1.6,3.7,2.4,5.8,2.4s4.2-.8,5.8-2.4c3.2-3.2,3.2-8.4,0-11.6l-29.8-29.8c-1.9-1.9-4.1-3.1-6.5-4.1-4.1-1.8-11.3-.9-14.1,0-2.4.8-4.6,2.3-6.5,4.1l-29.8,29.8c-3.2,3.2-3.2,8.4,0,11.6s8.4,3.2,11.6,0l23.5-23.5v239.3l-23.5-23.5Z"/>
      <path class="st0" d="M169.5,466.9c1.6,1.6,3.7,2.4,5.8,2.4s4.2-.8,5.8-2.4c3.2-3.2,3.2-8.4,0-11.6l-23.5-23.5h289.3l-23.5,23.5c-3.2,3.2-3.2,8.4,0,11.6s3.7,2.4,5.8,2.4,4.2-.8,5.8-2.4l29.8-29.8c1.9-1.9,2.7-3.7,4.3-6.6,1.3-2.5,1.2-11.3,0-13.9-1.3-2.8-2.4-4.7-4.3-6.5l-29.8-29.8c-3.2-3.2-8.4-3.2-11.6,0s-3.2,8.4,0,11.6l23.5,23.5H157.5l23.5-23.5c3.2-3.2,3.2-8.4,0-11.6-3.2-3.2-8.4-3.2-11.6,0l-29.8,29.8c-3.6,3.6-5.6,8.4-5.6,13.5s2,9.9,5.6,13.5l29.8,29.8Z"/>
    </g>
  </g>
</svg>