<?xml version="1.0" encoding="UTF-8"?>
<svg id="Layer_1" xmlns="http://www.w3.org/2000/svg" version="1.1" viewBox="0 0 41 40">
  <!-- Generator: Adobe Illustrator 29.1.0, SVG Export Plug-In . SVG Version: 2.1.0 Build 142)  -->
  <defs>
    <style>
      .st0 {
        fill: none;
        stroke: #232444;
        stroke-linecap: round;
        stroke-linejoin: round;
      }
    </style>
  </defs>
  <path class="st0" d="M4.8,7.1c-.8,0-1.5.3-2,.8s-.8,1.3-.8,2v25.7c0,.8.3,1.5.8,2,.5.5,1.3.8,2,.8h31.4c.8,0,1.5-.3,2-.8.5-.5.8-1.3.8-2V10c0-.8-.3-1.5-.8-2s-1.3-.8-2-.8h-5.7"/>
  <path class="st0" d="M1.9,18.6h37.1"/>
  <path class="st0" d="M10.5,1.4v11.4"/>
  <path class="st0" d="M30.5,1.4v11.4"/>
  <path class="st0" d="M10.5,7.1h14.3"/>
</svg>