<?xml version="1.0" encoding="UTF-8"?>
<svg id="Layer_1" xmlns="http://www.w3.org/2000/svg" version="1.1" viewBox="0 0 512 512">
  <!-- Generator: Adobe Illustrator 29.1.0, SVG Export Plug-In . SVG Version: 2.1.0 Build 142)  -->
  <defs>
    <style>
      .st0 {
        fill: #232444;
      }
    </style>
  </defs>
  <g id="_7.Paper">
    <path class="st0" d="M398.5,507H113.5c-33.9,0-61.5-25.8-61.5-57.5v-170.1c0-3.3,2.7-6,6-6s6,2.7,6,6v170.1c0,25.1,22.2,45.5,49.5,45.5h285.1c27.3,0,49.5-20.4,49.5-45.5V100.3h-30.5c-34.7,0-63-26.4-63-58.9v-24.4H113.5c-27.3,0-49.5,20.4-49.5,45.5v170.1c0,3.3-2.7,6-6,6s-6-2.7-6-6h0V62.5c0-31.7,27.6-57.5,61.5-57.5h247.1c3.3,0,6,2.7,6,6v30.4c0,25.8,22.9,46.9,51,46.9h36.5c3.3,0,6,2.7,6,6h0v355.2c0,31.7-27.6,57.5-61.5,57.5h0Z"/>
    <path class="st0" d="M58,266.5c-3.3,0-6-2.7-6-6h0v-9c0-3.3,2.7-6,6-6s6,2.7,6,6v9c0,3.3-2.7,6-6,6h0Z"/>
    <path class="st0" d="M453.9,100.3h-36.4c-34.7,0-63-26.4-63-58.9V11c0-3.3,2.7-6,6-6h.5c1.5,0,2.9.5,4,1.5l92.9,83.3c2.5,2.2,2.7,6,.5,8.5-1.1,1.3-2.8,2-4.5,2h0ZM366.5,24v17.4c0,25.8,22.9,46.9,51,46.9h20.7l-71.7-64.3Z"/>
    <path class="st0" d="M225.2,356.9c-14,0-27.4-5.5-37.3-15.4l-55.9-55.9c-16-15.6-16.4-41.2-.8-57.3s41.2-16.4,57.3-.8c.3.3.5.5.8.8l29.4,29.4c3.7,3.7,9.6,3.7,13.3,0l90.8-90.8c15.8-15.8,41.4-15.8,57.3,0,15.8,15.8,15.8,41.5,0,57.3l-117.5,117.3c-9.9,9.9-23.3,15.4-37.3,15.4ZM160.6,228.4c-15.7,0-28.5,12.8-28.5,28.5,0,7.6,3,14.8,8.3,20.1l55.9,55.9c15.9,15.9,41.7,15.9,57.7,0l117.4-117.3c11.1-11.1,11.1-29.2,0-40.3-11.1-11.1-29.2-11.1-40.3,0l-90.8,90.8c-8.4,8.4-21.9,8.4-30.3,0,0,0,0,0,0,0l-29.4-29.4c-5.3-5.4-12.6-8.4-20.1-8.4h0Z"/>
  </g>
</svg>