<?xml version="1.0" encoding="UTF-8"?>
<svg id="Line" xmlns="http://www.w3.org/2000/svg" version="1.1" viewBox="0 0 64 64">
  <!-- Generator: Adobe Illustrator 29.1.0, SVG Export Plug-In . SVG Version: 2.1.0 Build 142)  -->
  <defs>
    <style>
      .st0 {
        fill: #232444;
      }
    </style>
  </defs>
  <path class="st0" d="M26,60c1.3,0,1.3-2,0-2H8c-1.1,0-2-.9-2-2V17c0-.6-.4-1-1-1s-1,.4-1,1v39c0,2.2,1.8,4,4,4h18Z"/>
  <path class="st0" d="M5,13c.6,0,1-.4,1-1v-4c0-1.1.9-2,2-2h26v6c0,2.2,1.8,4,4,4h1c1.3,0,1.3-2,0-2h-1c-1.1,0-2-.9-2-2v-4.6l8,8v10.9c0,.6.4,1,1,1s1-.4,1-1v-11.4c0-.3-.1-.5-.3-.7l-10-10c-.2-.2-.4-.3-.7-.3H8c-2.2,0-4,1.8-4,4v4c0,.6.4,1,1,1Z"/>
  <path class="st0" d="M13,22.3h24c1.3,0,1.3-2,0-2H13c-1.3,0-1.3,2,0,2Z"/>
  <path class="st0" d="M38,28.3c0-.6-.4-1-1-1H13c-.6,0-1,.4-1,1s.4,1,1,1h24c.6,0,1-.4,1-1Z"/>
  <path class="st0" d="M21.3,50.9c.4.2.8,0,1.1-.2l3.3-3.5c.9-1-.5-2.3-1.4-1.4,0,0-1.6,1.7-1.6,1.7v-1.3c0-1-1.3-1.4-1.8-.5-1.4,2.2-2.7,3.4-3.9,3.6,1.7-1.7,6.8-9.1,3.2-11.1-1.4-.5-2.9.9-3.2,1.2-1.1,1.1-1.9,2.6-2.4,4.3-.7,2.3-.9,4.1-.5,5.5-.5.4-1,.7-1.5,1-.5.3-.7.9-.4,1.4.8,1.3,2.2-.1,3-.7,2.1,1,3.8,0,5.5-1.7,0,.6-.1,1.5.6,1.8h0ZM15.8,47.4c.1-2.4,1.2-6.2,3.5-7.3.1,2.6-2.1,5.5-3.5,7.3Z"/>
  <path class="st0" d="M59,58h-24.8v-10.1c0-1.3-2-1.3-2,0,0,0,0,10.1,0,10.1h-1.2c-.6,0-1,.4-1,1s.4,1,1,1h28c1.3,0,1.3-2,0-2Z"/>
  <path class="st0" d="M56.8,55c.6,0,1-.4,1-1v-13.9l.7.4c.5.3,1.1.1,1.4-.4.3-.5.1-1.1-.4-1.4l-14-8.3c-.3-.2-.7-.2-1,0l-14,8.3c-1.1.7-.1,2.4,1,1.7,0,0,.7-.4.7-.4v2.8c0,1.3,2,1.3,2,0v-4l10.8-6.4,10.8,6.4v15.1c0,.6.4,1,1,1h0Z"/>
  <path class="st0" d="M39.4,41.7c-.6,0-1,.4-1,1v11.2c0,.6.4,1,1,1h11.2c.6,0,1-.4,1-1v-11.2c0-.6-.4-1-1-1h-11.2ZM49.6,47.3h-3.6v-3.6h3.6v3.6ZM44,43.7v3.6h-3.6v-3.6h3.6ZM40.4,49.3h3.6v3.6h-3.6v-3.6ZM46,52.9v-3.6h3.6v3.6h-3.6Z"/>
</svg>