<?xml version="1.0" encoding="UTF-8"?>
<svg id="Layer_1" xmlns="http://www.w3.org/2000/svg" version="1.1" viewBox="0 0 512 512">
  <!-- Generator: Adobe Illustrator 29.1.0, SVG Export Plug-In . SVG Version: 2.1.0 Build 142)  -->
  <defs>
    <style>
      .st0 {
        fill: #232444;
      }
    </style>
  </defs>
  <path class="st0" d="M510.7,162.1c-3.7-29.3-14.8-56-31.2-75.2-8.8-10.2-18.6-17.7-28.8-22.3-1.9-8-6-15.5-11.9-21.4-9.3-9.2-22-14-34.9-13.1l-88.4,6c-12.9.9-25.1,6.4-34.2,15.5L14.3,318.7c-19,19-19,50,0,69l80,80c9.2,9.2,21.5,14.3,34.5,14.3s25.3-5.1,34.5-14.3l219.5-219.5c16.1,22.9,37.3,35.8,58.9,35.8s4.5-.1,6.8-.4c21-2.6,39-17.1,50.6-40.8,11.1-22.7,15.3-51.3,11.6-80.6h0ZM153,457.4c-6.5,6.5-15.1,10-24.2,10s-17.7-3.6-24.2-10l-80-80c-6.5-6.5-10-15.1-10-24.2s3.6-17.7,10-24.2L291.6,61.9c6.7-6.7,15.5-10.7,24.9-11.3l88.4-6c.7,0,1.4-.1,2-.1,8,0,15.8,3.2,21.5,8.9,1.9,1.9,3.5,4,4.8,6.3-4.3-.5-8.6-.5-13,.1-11.1,1.4-21.3,6.2-30.2,13.7-11.1-4.1-24.1-1.8-33,7.1-5.9,5.9-9.1,13.7-9.1,22s3.2,16.1,9.1,22c5.9,5.9,13.7,9.1,22,9.1s16.1-3.2,22-9.1c11.6-11.6,12.1-30.3,1.4-42.5,6-4.3,12.5-7.1,19.5-7.9,5-.6,10.1-.3,15.2,1,0,.6,0,1.1-.1,1.7l-6,88.4c-.6,9.4-4.6,18.2-11.3,24.9L153,457.4ZM395.7,102.8c0,4.4-1.7,8.6-4.9,11.7-3.1,3.1-7.3,4.9-11.7,4.9s-.9,0-1.4-.1c3.6-10.7,8.5-19.7,14.3-26.9,2.4,2.9,3.7,6.5,3.7,10.4ZM362.5,102.8c0-4.4,1.7-8.6,4.9-11.7,3-3,7-4.6,11-4.8-5.3,7.2-9.8,15.7-13.3,25.2-1.7-2.6-2.6-5.6-2.6-8.7ZM486,236.3c-9.4,19.1-23.4,30.8-39.4,32.8-19,2.4-38.6-9.3-53.4-31.4l37-37c9.2-9.2,14.7-21.3,15.5-34.2l5.7-84.8c5.9,3.7,11.6,8.6,16.9,14.8,14.6,17,24.5,41,27.8,67.5,3.5,26.5-.2,52.2-10.1,72.3Z"/>
  <path class="st0" d="M292,259.4l-103.7-45c-2.7-1.2-5.9-.6-8.1,1.5-2.1,2.1-2.7,5.3-1.5,8.1l45.7,105.3c1.2,2.7,3.9,4.4,6.7,4.4s2-.2,2.9-.6c3.7-1.6,5.4-5.9,3.8-9.6l-14.3-33,31.3-31.3,31.4,13.6c3.7,1.5,8-.3,9.5-4,1.5-3.6-.2-7.8-3.7-9.4h0ZM217.2,276.1l-17.8-41,41,17.8-23.2,23.2ZM262.3,154.4l17.4-17.4c2.8-2.8,2.8-7.5,0-10.3s-7.5-2.8-10.3,0l-22.5,22.5-22.5,22.5c-2.8,2.8-2.8,7.5,0,10.3s3.3,2.1,5.2,2.1,3.7-.7,5.2-2.1l17.4-17.4,70.3,70.3c1.4,1.4,3.3,2.1,5.2,2.1s3.7-.7,5.2-2.1c2.8-2.8,2.8-7.5,0-10.3l-70.6-70.2ZM148,263.1c-1.5-3.7-5.8-5.5-9.5-3.9-3.7,1.5-5.5,5.8-3.9,9.5l37.3,89.8-90.3-37.6c-3.7-1.5-8,.2-9.5,3.9s.2,8,3.9,9.5l106.6,44.3c.9.4,1.9.6,2.8.6,1.9,0,3.8-.7,5.2-2.1,2.1-2.1,2.7-5.2,1.6-8l-44.2-106Z"/>
</svg>