<svg id="Capa_1" enable-background="new 0 0 512.001 512.001" viewBox="0 0 512.001 512.001" xmlns="http://www.w3.org/2000/svg"><g><g><path d="m262.49 382.394v28.15h28.15z"/><path d="m207.68 143.914 244.32 244.32v-342.68c0-8.28-6.72-15-15-15h-333.03v339.42c0 7.3-5.92 13.22-13.22 13.22-1.39.01-20.16.13-28.15.18-17.63 0-32.02 13.9-32.69 31.18.31 6.34-.52 14.4 9.83 26.05 9.39 9.45 21.28 9.8 23.69 9.82h69.18v-275.41c0-17.87 10.66-33.82 27.15-40.63 5.36-2.23 11.02-3.35 16.82-3.35 11.75 0 22.8 4.57 31.1 12.88zm189.32 24.51h-98.06c-8.29 0-15-6.72-15-15s6.71-15 15-15h98.06c8.28 0 15 6.72 15 15s-6.72 15-15 15zm-158.06-90h158.06c8.23 0 15 6.77 15 15s-6.77 15-15 15h-158.06c-8.23 0-15-6.77-15-15s6.77-15 15-15z"/><path d="m73.97 353.304v-339.34c0-7.75-7.067-13.674-14.665-12.146-33.826 6.804-59.305 36.687-59.305 72.516v335.41c1.299-14.711 8.496-28.509 19.14-38.93 11.73-11.22 27.12-17.41 43.35-17.44 2.89-.02 7.15-.05 11.48-.07z"/><path d="m507.91 486.564-321.44-321.44c-4-4-10.01-5.19-15.23-3.03-5.23 2.16-8.63 7.26-8.63 12.92v321.43c0 7.72 6.26 13.98 13.98 13.98h321.43c5.65 0 10.76-3.42 12.92-8.63s.96-11.24-3.03-15.23zm-275.42-46.02v-130.58l130.58 130.58z"/></g></g><g/><g/><g/><g/><g/><g/><g/><g/><g/><g/><g/><g/><g/><g/><g/></svg>