<svg id="Layer_2" height="512" viewBox="0 0 32 32" width="512" xmlns="http://www.w3.org/2000/svg" data-name="Layer 2"><path d="m21.56 1h-1.53v3.54a3.00234 3.00234 0 0 0 3 3h3.53v-1.54a5.00181 5.00181 0 0 0 -5-5z"/><path d="m5.44 26a5.00181 5.00181 0 0 0 5 5h11.12a5.00181 5.00181 0 0 0 5-5v-16.46h-3.53a5.00824 5.00824 0 0 1 -5-5v-3.54h-7.59a5.00181 5.00181 0 0 0 -5 5zm15.89-5a1.795 1.795 0 1 1 -1.79-1.8 1.78819 1.78819 0 0 1 1.79 1.8zm-3.05-7.24a1.00408 1.00408 0 1 1 1.42 1.42l-5.98 5.97a.99228.99228 0 0 1 -.71.3 1.0096 1.0096 0 0 1 -.71-.3.99579.99579 0 0 1 0-1.41zm-5.82-1.63a1.79 1.79 0 1 1 -1.79 1.79 1.79674 1.79674 0 0 1 1.79-1.79z"/></svg>