<svg id="Capa_1" enable-background="new 0 0 512 512" height="512" viewBox="0 0 512 512" width="512" xmlns="http://www.w3.org/2000/svg"><g><path d="m428.384 0h-246.163v98.604c0 8.284-6.716 15-15 15h-98.605v383.396c0 8.271 6.729 15 15 15h344.769c8.271 0 15-6.729 15-15v-482c-.001-8.271-6.73-15-15.001-15zm-258.321 219.523 77.57-79.428c2.815-2.883 6.672-4.512 10.701-4.52h.03c4.019 0 7.869 1.612 10.689 4.477l78.307 79.538c5.812 5.903 5.738 15.4-.166 21.213-2.921 2.876-6.723 4.311-10.522 4.311-2.156 0-4.305-.479-6.298-1.401v49.123c0 8.284-6.716 15-15 15h-114.02c-8.284 0-15-6.716-15-15v-48.909c-5.34 2.128-11.663 1.083-16.04-3.192-5.926-5.788-6.039-15.285-.251-21.212zm106.1 207.91h-134.128c-8.284 0-15-6.716-15-15s6.716-15 15-15h134.128c8.284 0 15 6.716 15 15s-6.716 15-15 15zm93.802 0h-44.738c-8.284 0-15-6.716-15-15s6.716-15 15-15h44.738c8.284 0 15 6.716 15 15s-6.715 15-15 15zm0-59.597h-227.93c-8.284 0-15-6.716-15-15s6.716-15 15-15h227.931c8.284 0 15 6.716 15 15s-6.716 15-15.001 15z"/><path d="m152.221 0-83.605 83.604h78.605c2.761 0 5-2.239 5-5z"/><path d="m216.354 215.213v62.623h84.021v-62.623l-42.01-43.137z"/></g></svg>