<svg id="Capa_1" enable-background="new 0 0 512 512" height="512" viewBox="0 0 512 512" width="512" xmlns="http://www.w3.org/2000/svg"><g><path d="m383.467 358.3c-13.877 0-25.167 11.29-25.167 25.167 1.265 33.341 49.074 33.332 50.334 0 0-13.877-11.29-25.167-25.167-25.167z"/><path d="m256.107 286.629 20.755-20.755c-2.314-2.64-3.728-6.088-3.728-9.875v-16.067c.738-19.881 29.269-19.866 30 0v5.829c7.12-2.482 15.188-3.057 22.661-1.538 7.852-11.699 21.197-19.291 36.09-19.291h5.516v-209.932c0-8.284-6.716-15-15-15h-257.068c-8.284 0-15 6.716-15 15v400.6h145.909c-.851-3.388-1.309-6.923-1.309-10.552v-43.163c0-14.895 7.594-28.242 19.295-36.093-2.722-13.825 1.348-28.631 11.879-39.163zm17.027-207.362c.738-19.881 29.269-19.866 30 0v16.067c-.738 19.881-29.269 19.866-30 0zm0 80.333c.738-19.881 29.269-19.866 30 0v16.066c-.738 19.881-29.269 19.866-30 0zm-98.534 96.4c-.738 19.881-29.269 19.866-30 0v-16.067c.738-19.881 29.269-19.866 30 0zm0-80.333c-.738 19.881-29.269 19.866-30 0v-16.067c.738-19.881 29.269-19.866 30 0zm0-80.334c-.738 19.881-29.269 19.866-30 0v-16.066c.738-19.881 29.269-19.866 30 0zm64.267 160.667c-.738 19.881-29.269 19.866-30 0v-16.067c.738-19.881 29.269-19.866 30 0zm0-80.333c-.738 19.881-29.269 19.866-30 0v-16.067c.738-19.881 29.269-19.866 30 0zm0-80.334c-.738 19.881-29.269 19.866-30 0v-16.066c.738-19.881 29.269-19.866 30 0z"/><path d="m441.139 244.224c7.474-1.519 15.542-.945 22.661 1.537v-102.228c0-3.978-1.58-7.793-4.394-10.606l-48.2-48.2c-3.547-3.585-8.887-5.16-13.806-4.038v144.244h7.647c14.893 0 28.24 7.593 36.092 19.291z"/><path d="m500.233 348.556-16.385-2.046c-.983-2.669-2.074-5.299-3.27-7.883l10.141-13.04c4.158-5.348 3.684-12.955-1.105-17.745l-30.524-30.522c-4.79-4.79-12.397-5.263-17.745-1.105l-13.04 10.141c-2.585-1.196-5.215-2.287-7.882-3.27l-2.046-16.385c-.84-6.723-6.554-11.768-13.329-11.768h-43.163c-6.775 0-12.49 5.045-13.329 11.768l-2.046 16.384c-2.668.983-5.299 2.074-7.884 3.27l-13.04-10.141c-5.346-4.158-12.952-3.685-17.744 1.105l-30.523 30.523c-4.79 4.79-5.264 12.396-1.105 17.744l10.142 13.04c-1.196 2.586-2.288 5.216-3.271 7.883l-16.385 2.046c-6.723.84-11.768 6.554-11.768 13.329v43.163c0 6.775 5.045 12.489 11.768 13.329l16.384 2.046c.983 2.668 2.074 5.299 3.271 7.884l-10.141 13.039c-4.159 5.347-3.685 12.955 1.105 17.744l30.523 30.523c4.791 4.791 12.397 5.264 17.744 1.105l13.041-10.141c2.586 1.196 5.216 2.287 7.883 3.27l2.046 16.384c.839 6.723 6.554 11.768 13.329 11.768h43.163c6.775 0 12.489-5.045 13.329-11.768l2.046-16.384c2.668-.983 5.299-2.074 7.883-3.27l13.039 10.14c5.349 4.159 12.954 3.685 17.745-1.105l30.524-30.524c4.79-4.79 5.264-12.397 1.105-17.744l-10.142-13.04c1.196-2.586 2.287-5.215 3.271-7.882l16.384-2.046c6.723-.839 11.768-6.554 11.768-13.329v-43.163c0-6.773-5.045-12.487-11.767-13.327zm-116.766 90.077c-30.419 0-55.167-24.748-55.167-55.167 2.773-73.086 107.572-73.066 110.334.001 0 30.419-24.749 55.166-55.167 55.166z"/><path d="m0 191.733v208.867c0 8.284 6.716 15 15 15h35.333v-238.867h-35.333c-8.284 0-15 6.716-15 15z"/></g></svg>