<svg id="Line" viewBox="0 0 64 64" xmlns="http://www.w3.org/2000/svg"><path d="m26 60c1.30797-.02569 1.32165-1.97365-.00005-2h-17.99995c-1.10254 0-2-.89746-2-2v-39c0-.55225-.44727-1-1-1s-1 .44775-1 1v39c0 2.20605 1.79395 4 4 4z"/><path d="m5 13c.55273 0 1-.44775 1-1v-4c0-1.10303.89746-2 2-2h26v6c0 2.20557 1.79395 4 4 4h1c1.30973-.02163 1.31858-1.97689-.00005-2h-.99995c-1.10254 0-2-.89697-2-2v-4.58594l8 8v10.9458c0 .55225.44727 1 1 1s1-.44775 1-1v-11.35986c.00063-.25993-.10916-.52462-.29364-.7077l-9.99847-9.99847c-.1831-.18461-.44787-.29443-.70789-.29382h-27c-2.20605 0-4 1.79443-4 4v4c0 .55225.44727 1 1 1z"/><path d="m13 22.27002h24c1.30669-.01972 1.32076-1.97732-.00005-2h-23.99995c-1.30669.01972-1.32076 1.97732 0 2z"/><path d="m38 28.27002c0-.55225-.44727-1-1-1h-24c-.55273 0-1 .44775-1 1s.44727 1 1 1h24c.55273 0 1-.44775 1-1z"/><path d="m21.33301 50.85449c.37988.15137.8125.05762 1.0957-.23926l3.2959-3.46191c.8936-.9507-.53653-2.32009-1.44926-1.37886.00004-.00005-1.57125 1.65034-1.57125 1.65034v-1.30078c.0311-.96851-1.34291-1.37333-1.83986-.54291-1.44925 2.17675-2.65616 3.41771-3.93355 3.59569 1.70336-1.71835 6.79567-9.11648 3.19247-11.06846-1.38-.51557-2.87903.94244-3.16516 1.23932-1.05859 1.09766-1.89746 2.59766-2.42676 4.33691-.68652 2.25586-.86133 4.08789-.52246 5.45605-.48145.37695-.97754.70605-1.48438.97949-.48535.2627-.66699.86914-.4043 1.35547.82674 1.2699 2.18701-.14619 3.04882-.69818 2.07173.99183 3.8457.07072 5.53516-1.69629-.00518.62479-.11541 1.51024.62891 1.77338zm-5.48633-3.47461c.14384-2.3589 1.24316-6.15714 3.48531-7.32913.11902 2.558-2.05919 5.54455-3.48531 7.32913z"/><path d="m59 58h-24.75977v-10.14258c-.01713-1.30843-1.97972-1.31859-2 .00005 0-.00005 0 10.14253 0 10.14253h-1.24023c-.55273 0-1 .44727-1 1s.44727 1 1 1h28c1.30167-.01956 1.32543-1.97613 0-2z"/><path d="m56.75977 55c.55272 0 1-.44727 1-1v-13.91516l.73047.43274c.46766.27853 1.08701.129 1.37012-.35059.28125-.47558.12402-1.08887-.35059-1.37012l-14-8.29346c-.31445-.18652-.70508-.18652-1.01953 0l-14 8.29346c-1.11257.68687-.12943 2.37438 1.01957 1.72068-.00004.00002.73043-.43272.73043-.43272v2.77258c.02699 1.31596 1.97521 1.31482 2-.00004v-3.95736l10.75977-6.37415 10.75977 6.37415v15.09998c0 .55273.44727 1 1 1z"/><path d="m39.40039 41.65723c-.55273 0-1 .44727-1 1v11.2002c0 .55273.44727 1 1 1h11.19922c.55273 0 1-.44727 1-1v-11.2002c0-.55273-.44727-1-1-1zm10.19922 5.59961h-3.59961v-3.59961h3.59961zm-5.59961-3.59961v3.59961h-3.59961v-3.59961zm-3.59961 5.59961h3.59961v3.60059h-3.59961zm5.59961 3.60059v-3.60059h3.59961v3.60059z"/></svg>