<?xml version="1.0" encoding="UTF-8"?>
<svg id="Line" xmlns="http://www.w3.org/2000/svg" version="1.1" viewBox="0 0 64 64">
  <defs>
    <style>
      .cls-1 {
        fill: #000;
        stroke-width: 0px;
      }
    </style>
  </defs>
  <path class="cls-1" d="M26,60c1.3,0,1.3-2,0-2H8c-1.1,0-2-.9-2-2V17c0-.6-.4-1-1-1s-1,.4-1,1v39c0,2.2,1.8,4,4,4h18Z"/>
  <path class="cls-1" d="M5,13c.6,0,1-.4,1-1v-4c0-1.1.9-2,2-2h26v6c0,2.2,1.8,4,4,4h1c1.3,0,1.3-2,0-2h-1c-1.1,0-2-.9-2-2v-4.6l8,8v10.9c0,.6.4,1,1,1s1-.4,1-1v-11.4c0-.3-.1-.5-.3-.7l-10-10c-.2-.2-.4-.3-.7-.3H8c-2.2,0-4,1.8-4,4v4c0,.6.4,1,1,1Z"/>
  <path class="cls-1" d="M13,22.3h24c1.3,0,1.3-2,0-2H13c-1.3,0-1.3,2,0,2Z"/>
  <path class="cls-1" d="M38,28.3c0-.6-.4-1-1-1H13c-.6,0-1,.4-1,1s.4,1,1,1h24c.6,0,1-.4,1-1Z"/>
  <path class="cls-1" d="M21.3,50.9c.4.2.8,0,1.1-.2l3.3-3.5c.9-1-.5-2.3-1.4-1.4,0,0-1.6,1.7-1.6,1.7v-1.3c0-1-1.3-1.4-1.8-.5-1.4,2.2-2.7,3.4-3.9,3.6,1.7-1.7,6.8-9.1,3.2-11.1-1.4-.5-2.9.9-3.2,1.2-1.1,1.1-1.9,2.6-2.4,4.3-.7,2.3-.9,4.1-.5,5.5-.5.4-1,.7-1.5,1-.5.3-.7.9-.4,1.4.8,1.3,2.2-.1,3-.7,2.1,1,3.8,0,5.5-1.7,0,.6-.1,1.5.6,1.8h0ZM15.8,47.4c.1-2.4,1.2-6.2,3.5-7.3.1,2.6-2.1,5.5-3.5,7.3Z"/>
  <g>
    <path class="cls-1" d="M51.8,35.3c.2-.4.1-.8-.2-1.1-2.2-1.4-4.9-2.2-7.5-2.2-7.7,0-14,6.3-14,14s6.3,14,14,14,14-6.3,14-14-1.1-6.4-3.2-8.9c-.3-.3-.8-.4-1.1,0-.3.3-.4.8,0,1.1,1.9,2.2,2.9,5.1,2.9,8,0,6.9-5.6,12.5-12.5,12.5s-12.5-5.6-12.5-12.5,5.6-12.5,12.5-12.5,4.7.7,6.7,2c.4.2.8.1,1.1-.2Z"/>
    <path class="cls-1" d="M46.3,42.9c0,.4.3.8.8.8s.8-.3.8-.8c0-1.8-1.3-3.4-3.1-3.7v-1.3c0-.4-.3-.8-.8-.8s-.8.3-.8.8v1.3c-1.7.4-3.1,1.9-3.1,3.7s1.3,3.4,3.1,3.7v4.5c-.9-.3-1.5-1.2-1.5-2.2s-.3-.8-.8-.8-.8.3-.8.8c0,1.8,1.3,3.4,3.1,3.7v1.3c0,.4.3.8.8.8s.8-.3.8-.8v-1.3c1.7-.4,3.1-1.9,3.1-3.7s-1.3-3.4-3.1-3.7v-4.5c.9.3,1.5,1.2,1.5,2.2ZM43.2,45.1c-.9-.3-1.5-1.2-1.5-2.2s.6-1.8,1.5-2.2v4.3ZM46.3,49.1c0,1-.6,1.8-1.5,2.2v-4.3c.9.3,1.5,1.2,1.5,2.2Z"/>
  </g>
</svg>