<?xml version="1.0" encoding="UTF-8"?>
<svg id="Layer_1" xmlns="http://www.w3.org/2000/svg" version="1.1" viewBox="0 0 16 16">
  <!-- Generator: Adobe Illustrator 29.1.0, SVG Export Plug-In . SVG Version: 2.1.0 Build 142)  -->
  <defs>
    <style>
      .st0 {
        fill: none;
        stroke: #232444;
        stroke-linecap: round;
        stroke-linejoin: round;
      }
    </style>
  </defs>
  <path class="st0" d="M1.5,14h13M2.5,2v12M9.5,2v12M13.5,5v9M4.5,4.5h.5M4.5,6.5h.5M4.5,8.5h.5M7,4.5h.5M7,6.5h.5M7,8.5h.5M4.5,14v-2.2c0-.4.3-.8.8-.8h1.5c.4,0,.8.3.8.8v2.2M2,2h8M9.5,5h4.5M11.5,7.5h0s0,0,0,0h0ZM11.5,9.5h0s0,0,0,0h0ZM11.5,11.5h0s0,0,0,0h0Z"/>
</svg>