<svg height="512" viewBox="0 0 96 96" width="512" xmlns="http://www.w3.org/2000/svg"><g id="Layer_4"><g><path d="m27.889 41.588h5.122v15.673c0 2.952 2.402 5.356 5.356 5.356h34.41c2.952 0 5.356-2.403 5.356-5.356v-15.673h6.925c.957 0 1.802-.605 2.205-1.581.437-1.056.243-2.252-.479-2.972l-27.7-27.904c-1.465-1.463-3.805-1.511-5.225-.096l-27.69 28.043c-.722.721-.918 1.9-.49 2.936.402.971 1.248 1.574 2.21 1.574zm32.38 17.962h-7.915v-12.68c0-.365.297-.663.663-.663h6.59c.365 0 .663.297.663.663v12.68zm14.799-2.289c0 1.262-1.027 2.29-2.29 2.29h-9.443v-12.681c0-2.056-1.673-3.729-3.729-3.729h-6.59c-2.056 0-3.729 1.673-3.729 3.729v12.68h-10.92c-1.263 0-2.29-1.028-2.29-2.29v-16.742l20.39-20.404 18.971 18.972c-.222.266-.371.595-.371.968v17.207zm-19.034-46.062c.234-.236.645-.136.877.096l27.03 27.227h-4.73l-20.575-20.576c-1.192-1.194-3.131-1.194-4.323 0l-20.575 20.576h-4.684z"/><path d="m10.515 53.368c-.599-.599-1.569-.599-2.168 0s-.599 1.569 0 2.168l5.585 5.584c.676.677 1.574 1.048 2.53 1.048.955 0 1.854-.371 2.529-1.048l5.585-5.584c.599-.599.599-1.569 0-2.168s-1.569-.599-2.168 0l-4.414 4.412v-44.874l4.413 4.414c.299.299.693.449 1.085.449s.785-.15 1.084-.449c.599-.599.599-1.569 0-2.168l-5.585-5.586c-.348-.349-.774-.581-1.212-.773-.775-.338-2.125-.16-2.636 0-.452.141-.863.424-1.212.773l-5.585 5.586c-.599.599-.599 1.569 0 2.168s1.569.599 2.168 0l4.413-4.414v44.874z"/><path d="m31.781 87.548c.299.299.692.449 1.084.449.393 0 .786-.15 1.084-.449.599-.599.599-1.569.001-2.168l-4.413-4.414h54.247l-4.413 4.414c-.599.599-.599 1.569 0 2.168.299.299.692.449 1.084.449s.785-.15 1.084-.449l5.584-5.584c.356-.355.5-.686.799-1.231.253-.46.226-2.127-.001-2.602-.251-.525-.442-.872-.798-1.228l-5.583-5.583c-.599-.599-1.569-.599-2.168 0s-.599 1.569 0 2.168l4.413 4.412h-54.248l4.412-4.412c.599-.599.599-1.569.001-2.168-.599-.599-1.57-.599-2.169 0l-5.585 5.584c-.676.677-1.047 1.575-1.047 2.529 0 .956.372 1.857 1.047 2.529z"/></g></g></svg>