<svg id="Layer_1" enable-background="new 0 0 100.75 100.75" height="512" viewBox="0 0 100.75 100.75" width="512" xmlns="http://www.w3.org/2000/svg"><path d="m86.516 62.917-12.621-8.294c-.689-.453-1.622-.263-2.078.43-.455.692-.262 1.623.43 2.077l10.433 6.856-43.751 15.538-31.205-20.646 17.839-6.492c.778-.283 1.181-1.144.896-1.923-.283-.778-1.145-1.181-1.922-.896l-20.66 7.519c-.754.274-1.15 1.091-.915 1.85v8.914c0 .175.036.34.091.496.01.475.244.937.67 1.219l34.174 22.61c.255.168.543.249.827.249.297 0 .584-.098.834-.265l47.073-16.717c.554-.197.915-.688.981-1.235.083-.186.131-.391.131-.608v-9.209c-.001-.735-.53-1.344-1.227-1.473zm-80.554-1.607 31.263 20.684v6.139l-31.263-20.684zm34.263 20.937 44.518-15.81v6.491l-44.518 15.81z"/><path d="m97.11 31.695c0-.734-.528-1.343-1.225-1.472l-33.834-22.397c-.027-.018-.057-.028-.084-.044-.046-.026-.091-.052-.14-.073-.046-.02-.092-.036-.138-.051-.045-.015-.089-.029-.135-.039-.05-.011-.1-.018-.151-.024-.045-.005-.09-.011-.136-.012-.052-.001-.103.002-.155.006-.045.003-.09.007-.136.014-.053.009-.105.023-.157.038-.031.009-.062.012-.093.022l-47.468 16.709c-.767.27-1.173 1.1-.928 1.869v8.902c0 .17.034.331.087.483.007.479.242.947.671 1.231l34.168 22.618c.255.168.542.249.827.249.298 0 .586-.098.836-.267l47.074-16.708c.552-.196.911-.683.98-1.227.086-.189.137-.398.137-.619zm-36.092-20.955 31.039 20.547-43.769 15.534-31.165-20.63zm-45.688 17.862 31.254 20.689v6.14l-31.254-20.689zm34.254 20.942 44.526-15.803v6.491l-44.526 15.804z"/></svg>