<?xml version="1.0" encoding="UTF-8"?>
<svg xmlns="http://www.w3.org/2000/svg" id="Layer_2" data-name="Layer 2" viewBox="0 0 100 100" width="512" height="512"><path id="House_Key" data-name="House Key" d="M74.58,14.54a.87.87,0,0,0,.74,0c.22-.11.32-.32.43-.64.21-1.38.32-3.29-.85-4.46-2.77-2.76-9.25.74-12.65,3.19a.4.4,0,0,0,.31.74,23.11,23.11,0,0,1,12,1.17ZM79.15,17a23,23,0,0,1,5.64,33,3.36,3.36,0,0,0-.43,3.3l1,2.33a.68.68,0,0,0,.64.53l1.59.22a1.72,1.72,0,0,1,1.38,1.16c.64,1.28,1.17,2.77,1.71,4.15a1.68,1.68,0,0,1-.32,1.7c-.32.42-.75,1-1.07,1.38a.67.67,0,0,0-.1.42l.1.22a.79.79,0,0,0,.64.53l1.6.21a1.74,1.74,0,0,1,1.38,1.17c.64,1.27,1.17,2.76,1.7,4.14a1.66,1.66,0,0,1-.32,1.7,10.94,10.94,0,0,1-1,1.17,1.53,1.53,0,0,0-.1,1l1.49,3.4a5.68,5.68,0,0,1,.21,3l-1.81,9.14a5.11,5.11,0,0,1-3.19,3.82A4.79,4.79,0,0,1,85.11,94l-7.66-5.31a4.85,4.85,0,0,1-1.91-2.23L65.33,61.07A3.39,3.39,0,0,0,62.67,59a24,24,0,0,1-6-1.81.48.48,0,0,0-.54,0A24,24,0,0,1,45.55,57a3.44,3.44,0,0,0-3.3.85l-1.7,1.81a.69.69,0,0,0-.21.74l.43,1.6a2,2,0,0,1-.54,1.7L37,66.91a1.91,1.91,0,0,1-1.7.43c-.53-.21-1.17-.32-1.7-.53a.66.66,0,0,0-.42.1l-.11.22a.82.82,0,0,0-.21.85l.32,1.48a1.65,1.65,0,0,1-.43,1.7L29.6,74.35a1.65,1.65,0,0,1-1.7.43,7.6,7.6,0,0,0-1.49-.43.82.82,0,0,0-.85.21L22.9,77.22a5,5,0,0,1-2.55,1.38l-9.14,1.91a4.94,4.94,0,0,1-4.68-1.38,4.85,4.85,0,0,1-1.39-4.67L7,65.32a5.9,5.9,0,0,1,1.38-2.66L27.79,43.33a3,3,0,0,0,.85-1.49,2.27,2.27,0,0,0,0-1.7A23.4,23.4,0,0,1,34.7,18.26a22.83,22.83,0,0,1,15.21-6.7,1.63,1.63,0,0,1,1.81,1.6,1.63,1.63,0,0,1-1.6,1.8A19.56,19.56,0,0,0,32.05,39.29a7.86,7.86,0,0,1-.11,3.51,7,7,0,0,1-1.7,3L10.78,65.11a3.4,3.4,0,0,0-.43.85L8.44,75.2a1.65,1.65,0,0,0,2,1.91l9.15-1.8a1.26,1.26,0,0,0,.85-.53l3.61-3.62a1.9,1.9,0,0,1,1.81-.53l1.49.43a.82.82,0,0,0,.85-.22l1.06-1.06a.82.82,0,0,0,.21-.85l-.42-1.59a1.58,1.58,0,0,1,.53-1.59l2-2a1.5,1.5,0,0,1,1.7-.53l1.6.42a1,1,0,0,0,.74-.21l1.07-1.06A1,1,0,0,0,37,61.5L36.62,60a1.47,1.47,0,0,1,.42-1.7l2.77-2.87a7.15,7.15,0,0,1,6.59-1.81,19.93,19.93,0,0,0,10-.1,19.69,19.69,0,0,0,2.34-37.08,1,1,0,0,0-1,.21,29.5,29.5,0,0,0-5,7.44.86.86,0,0,0,.64,1.17A8.79,8.79,0,0,1,58,27.71a8.64,8.64,0,0,1,0,12.11,8.48,8.48,0,0,1-12.12,0,8.58,8.58,0,0,1-2.45-7.65,1.74,1.74,0,0,1,3.41.64,4.89,4.89,0,0,0,1.49,4.57,5.1,5.1,0,0,0,7,.21.83.83,0,0,0-.53-1.48,7,7,0,0,1-4.57-2c-1.7-1.7-2.23-4.25-1.81-7.12.75-5.1,4.47-10.31,8-13.81A28.63,28.63,0,0,1,67.56,5.83c4-1.38,7.55-1.06,9.78,1.17s2.34,5.95,1.49,9a.85.85,0,0,0,.32.95ZM52.68,31.64a2.79,2.79,0,0,0,1.7.85c2.44.53,2.87-.63,1.17-2.33-.64-.64-2.77-2-3.51-1.28s.1,2.23.64,2.76ZM18.12,69.89a1.73,1.73,0,0,1-2.45-2.45L30.45,52.78a1.73,1.73,0,0,1,2.45,2.45ZM63.73,55.65a6.71,6.71,0,0,1,4.79,4.15L78.73,85.19a2.16,2.16,0,0,0,.63.74L87,91.24a1.74,1.74,0,0,0,2.66-1.06L91.49,81A1.29,1.29,0,0,0,91.38,80L89.47,75.2a1.84,1.84,0,0,1,.21-1.7l1-1.27c.21-.32.32-.64.21-.85L90.21,70a.69.69,0,0,0-.64-.53L88,69.14a1.46,1.46,0,0,1-1.38-1.06l-1.07-2.65a1.85,1.85,0,0,1,.21-1.81l1-1.17a.88.88,0,0,0,.11-.85l-.53-1.49a1.12,1.12,0,0,0-.64-.53L84,59.37a1.46,1.46,0,0,1-1.38-1.06l-1.49-3.72A6.44,6.44,0,0,1,82,48,19.63,19.63,0,0,0,67.88,16.56a.89.89,0,0,0-.64,1.49l.64.63a22.93,22.93,0,0,1,6.27,15.94A23.19,23.19,0,0,1,63.52,54.06a.85.85,0,0,0,.21,1.59ZM86.06,80.3c.85,2.12-2.44,3.4-3.29,1.27L74.9,62c-.85-2,2.44-3.4,3.3-1.28Z"/></svg>
