<svg id="Layer_1" enable-background="new 0 0 66 66" height="512" viewBox="0 0 66 66" width="512" xmlns="http://www.w3.org/2000/svg"><g><path d="m62.24 46.25c-1.23-.66-2.69-.77-4-.3l-13.29 4.77c.08-.24.14-.48.18-.73.23-1.44-.17-2.89-1.1-3.98-.93-1.1-2.29-1.72-3.73-1.72h-7.28c-1.69 0-3.33-.59-4.72-1.7-3.17-2.53-9.61-5.87-18.05-1.13v-1.68c0-1.16-.94-2.1-2.1-2.1h-4.92c-1.16 0-2.1.94-2.1 2.1v21.04c0 1.16.94 2.1 2.1 2.1h4.92c1.16 0 2.1-.94 2.1-2.1v-1.02c1.6-.02 5.67.21 11.5 2.5 3.74 1.46 7.63 2.2 11.51 2.2 2.15 0 4.3-.23 6.41-.69 5.82-1.27 14.51-3.85 22.86-8.96 1.11-.68 1.91-1.81 2.21-3.1.51-2.17-.51-4.43-2.5-5.5zm-53.74 14.56c0 .19-.16.35-.35.35h-4.92c-.19 0-.35-.16-.35-.35v-21.04c0-.19.16-.35.35-.35h4.92c.19 0 .35.16.35.35zm54.54-9.46c-.2.84-.71 1.57-1.42 2-8.15 4.99-16.64 7.51-22.32 8.75-5.57 1.21-11.42.72-16.91-1.43-5.85-2.29-10-2.62-11.93-2.62-.08 0-.15 0-.22 0v-14.59c7.99-4.96 14.04-1.84 16.96.49 1.68 1.35 3.75 2.09 5.81 2.09h7.28c.92 0 1.8.4 2.4 1.11.61.71.86 1.63.7 2.57-.14.88-.7 1.63-1.47 2.1-.05.02-.11.05-.15.09-.5.27-1.08.42-1.69.42h-10.23c-.48 0-.88.39-.88.88s.39.88.88.88h10.24c.93 0 1.81-.24 2.57-.66l16.18-5.8c.84-.3 1.79-.24 2.61.21 1.26.65 1.92 2.11 1.59 3.51z"/><path d="m21.38 24.71c.67.63 1.36 1.29 1.54 1.86.2.62.02 1.58-.15 2.52-.26 1.45-.54 2.95.3 4.09.84 1.15 2.36 1.36 3.83 1.56.93.13 1.9.26 2.41.63.5.36.92 1.24 1.32 2.08.61 1.29 1.31 2.74 2.68 3.19.28.09.56.13.83.13 1.04 0 2.09-.56 3.1-1.11.85-.46 1.73-.93 2.4-.93s1.55.47 2.4.93c1.29.69 2.61 1.41 3.94.98 1.38-.45 2.07-1.9 2.68-3.19.4-.84.82-1.71 1.32-2.08.51-.37 1.48-.5 2.41-.63 1.47-.2 2.99-.4 3.83-1.55.83-1.14.56-2.64.3-4.09-.17-.94-.34-1.9-.15-2.52.18-.57.88-1.22 1.54-1.86 1.04-.99 2.22-2.11 2.22-3.58s-1.18-2.59-2.22-3.58c-.67-.63-1.36-1.29-1.54-1.86-.2-.62-.02-1.58.15-2.52.26-1.45.54-2.95-.3-4.09-.84-1.15-2.36-1.36-3.83-1.56-.93-.13-1.9-.26-2.41-.63-.5-.36-.92-1.24-1.32-2.08-.61-1.29-1.31-2.74-2.68-3.19-1.32-.43-2.65.29-3.94.98-.85.46-1.73.93-2.4.93s-1.55-.47-2.4-.93c-1.29-.69-2.62-1.41-3.94-.98-1.38.45-2.07 1.9-2.68 3.19-.4.84-.82 1.71-1.32 2.08-.51.37-1.48.5-2.41.63-1.47.2-2.99.4-3.83 1.56-.83 1.14-.56 2.64-.3 4.09.17.94.34 1.9.15 2.52-.19.57-.88 1.22-1.54 1.86-1.04.99-2.22 2.11-2.22 3.58 0 1.46 1.19 2.58 2.23 3.57zm1.2-5.89c.83-.78 1.68-1.59 2-2.59.34-1.03.12-2.22-.09-3.37-.2-1.09-.4-2.22-.01-2.75.4-.55 1.54-.7 2.65-.85 1.15-.15 2.34-.31 3.21-.95.86-.62 1.37-1.7 1.87-2.74.48-1.01.99-2.06 1.65-2.28.09-.03.19-.04.29-.04.61 0 1.46.46 2.28.9 1.04.56 2.12 1.14 3.23 1.14s2.19-.58 3.23-1.14c.96-.52 1.95-1.05 2.57-.85.66.21 1.16 1.26 1.65 2.28.5 1.04 1.01 2.11 1.87 2.74.87.63 2.06.79 3.21.95 1.11.15 2.25.3 2.65.85.39.54.19 1.66-.01 2.75-.21 1.15-.42 2.34-.09 3.37.32.99 1.18 1.8 2 2.59.82.78 1.68 1.59 1.68 2.31s-.85 1.53-1.68 2.31-1.68 1.59-2 2.59c-.34 1.03-.12 2.22.09 3.37.2 1.09.4 2.21.01 2.75-.4.55-1.54.7-2.65.85-1.15.15-2.34.31-3.21.95-.86.62-1.37 1.7-1.87 2.74-.48 1.02-.99 2.06-1.65 2.28-.61.2-1.61-.34-2.57-.85-1.04-.56-2.12-1.14-3.23-1.14s-2.19.58-3.23 1.14c-.96.52-1.95 1.05-2.57.85-.66-.21-1.16-1.26-1.65-2.28-.5-1.04-1.01-2.11-1.87-2.74-.87-.63-2.06-.79-3.21-.95-1.11-.15-2.25-.3-2.65-.85-.39-.54-.19-1.66.01-2.75.21-1.15.42-2.34.09-3.37-.32-.99-1.18-1.8-2-2.59-.82-.78-1.68-1.59-1.68-2.31 0-.73.86-1.54 1.68-2.32z"/><path d="m39.65 33.36c6.74 0 12.23-5.49 12.23-12.23s-5.48-12.23-12.23-12.23-12.23 5.49-12.23 12.23 5.49 12.23 12.23 12.23zm0-22.71c5.78 0 10.48 4.7 10.48 10.48s-4.7 10.48-10.48 10.48-10.48-4.7-10.48-10.48 4.7-10.48 10.48-10.48z"/><path d="m35.56 26.57c.54.54 1.27.84 2.03.84s1.49-.3 2.03-.84l6.81-6.81c.54-.54.84-1.27.84-2.03s-.3-1.49-.84-2.03c-1.12-1.12-2.95-1.12-4.07 0l-4.77 4.77-.66-.66c-1.12-1.12-2.94-1.12-4.07 0-1.12 1.12-1.12 2.94 0 4.07zm-1.45-5.52c.22-.22.51-.33.8-.33s.58.11.8.33l1.28 1.27c.34.34.9.34 1.24 0l5.39-5.39c.44-.44 1.15-.44 1.59 0 .21.21.33.49.33.79s-.12.58-.33.8l-6.81 6.81c-.42.42-1.17.42-1.59 0l-2.69-2.69c-.45-.44-.45-1.15-.01-1.59z"/></g></svg>