<?xml version="1.0" encoding="iso-8859-1"?>
<!-- Generator: Adobe Illustrator 19.0.0, SVG Export Plug-In . SVG Version: 6.00 Build 0)  -->
<svg id="fi_4360129" enable-background="new 0 0 512 512" height="512" viewBox="0 0 512 512" width="512" xmlns="http://www.w3.org/2000/svg">
                                    <g>
                                        <path d="m323.67 244.75c-8.143 0-15.209 4.54-18.83 11.213-.658 1.213-1.203 2.497-1.619 3.837s-.705 2.736-.851 4.174c-.073.719-.11 1.448-.11 2.186v138.84h60v-138.84c0-11.76-9.52-21.41-21.42-21.41z"></path>
                                        <path d="m204.823 404.985c11.098 0 27.93.011 53.732.014h4.282.402 9.021v-131.119c-22.93 9.74-42.82 24.69-58.42 44.09-19.84 24.65-31.6 55.6-33.19 87.32 0 0 18.487-.305 24.173-.305z"></path>
                                        <path d="m459.209 404.986c22.055 0 22 .041 24.244.264.026.003.053.005.08.008.043.004.086.009.131.013.066.006.134.013.206.02-2.611-51.999-31.68-99.052-77.026-124.444-4.691-2.627-9.556-5.022-14.584-7.166v131.319h10.185c27.418-.003 45.157-.014 56.764-.014z"></path>
                                        <path d="m501.98 445.05c-6.46-6.48-15.07-10.05-24.23-10.05h-290.99c-18.88 0-34.24 15.36-34.24 34.25v27.75c0 8.28 6.72 15 15 15h329.48c8.28 0 15-6.72 15-15v-27.75c0-9.16-3.57-17.77-10.02-24.2z"></path>
                                        <path d="m192.85 293.17c23.07-26.6 53.94-46.02 88.16-55.73 1.84-2.71 3.94-5.27 6.31-7.63 9.71-9.71 22.62-15.06 36.35-15.06h17.17c11.94 0 23.46 4.14 32.64 11.69 2.52-12.34 3.78-24.97 3.78-37.81 0-104.01-84.62-188.63-188.63-188.63s-188.63 84.62-188.63 188.63c0 92.03 66.24 168.87 153.55 185.36 5.489-29.255 18.765-57.157 39.3-80.82zm-76.33-32.43c-5.85-5.86-5.85-15.36 0-21.22l57.11-57.1v-117.54c0-8.29 6.72-15 15-15s15 6.71 15 15v123.75c0 3.98-1.58 7.79-4.39 10.61l-61.5 61.5c-5.873 5.853-15.348 5.852-21.22 0z"></path>
                                    </g>
                                </svg>