<svg enable-background="new 0 0 64 64" viewBox="0 0 64 64" xmlns="http://www.w3.org/2000/svg"><path d="m59.2 59h-54.4c-2.6 0-4.8-2.1-4.8-4.8v-36.8c0-2.7 2.2-4.8 4.8-4.8h54.3c2.7 0 4.8 2.2 4.8 4.8v36.8c.1 2.7-2.1 4.8-4.7 4.8zm-54.4-44.5c-1.6 0-2.9 1.3-2.9 2.9v36.8c0 1.6 1.3 2.9 2.9 2.9h54.3c1.6 0 2.9-1.3 2.9-2.9v-36.8c0-1.6-1.3-2.9-2.9-2.9z"/><path d="m41.9 14.5c-.5 0-1-.4-1-1v-5.2c0-.8-.6-1.4-1.4-1.4h-15.1c-.8 0-1.4.6-1.4 1.4v5.2c0 .5-.4 1-1 1-.5 0-1-.4-1-1v-5.2c0-1.9 1.5-3.4 3.4-3.4h15.1c1.9 0 3.4 1.5 3.4 3.4v5.2c0 .5-.4 1-1 1zm-6 17c-.5 0-1-.4-1-.9s.4-1 .9-1c11.7-.3 22-1.7 26.7-3.7.5-.2 1.1 0 1.3.5s0 1.1-.5 1.3c-4.9 2.1-15.4 3.6-27.4 3.8zm-7.8 0c-12-.3-22.5-1.8-27.5-3.9-.5-.2-.7-.8-.5-1.3s.8-.7 1.3-.5c4.8 2.1 15 3.5 26.7 3.7.5 0 1 .5.9 1 0 .6-.4 1-.9 1z"/><path d="m32 37.6c-2.7 0-4.9-3.1-4.9-7s2.2-7 4.9-7 4.9 3.1 4.9 7-2.2 7-4.9 7zm0-12.1c-1.6 0-3 2.3-3 5.1s1.4 5.1 3 5.1 3-2.3 3-5.1-1.4-5.1-3-5.1z"/><path d="m32 32.9c-.5 0-1-.4-1-1v-2.6c0-.5.4-1 1-1 .5 0 1 .4 1 1v2.6c0 .6-.5 1-1 1z"/></svg>