<?xml version="1.0" encoding="iso-8859-1"?>
<!-- Generator: Adobe Illustrator 19.0.0, SVG Export Plug-In . SVG Version: 6.00 Build 0)  -->
<svg height="512" viewBox="0 0 32 32" width="512" xmlns="http://www.w3.org/2000/svg" id="fi_4211003">
                                    <g id="_26-Guranteed" data-name="26-Guranteed">
                                        <path d="m27 6c-5.56 0-10.33-3.74-10.38-3.78a1 1 0 0 0 -1.24 0c-.05.04-4.8 3.78-10.38 3.78a1 1 0 0 0 -1 1v9c0 6.71 2.71 10 11.59 13.91a1 1 0 0 0 .82 0c8.88-3.91 11.59-7.2 11.59-13.91v-9a1 1 0 0 0 -1-1zm-11 18a8 8 0 1 1 8-8 8 8 0 0 1 -8 8z"></path>
                                        <path d="m18.29 13.29-3.29 3.3-1.29-1.3a1 1 0 0 0 -1.42 1.42l2 2a1 1 0 0 0 1.42 0l4-4a1 1 0 0 0 -1.42-1.42z"></path>
                                    </g>
                                </svg>