<?xml version="1.0" encoding="iso-8859-1"?>
<!-- Generator: Adobe Illustrator 19.0.0, SVG Export Plug-In . SVG Version: 6.00 Build 0)  -->
<svg fill="none" height="512" viewBox="0 0 24 24" width="512" xmlns="http://www.w3.org/2000/svg" id="fi_10387102">
                                    <path d="m16.19 2h-8.38c-3.64 0-5.81 2.17-5.81 5.81v8.37c0 3.65 2.17 5.82 5.81 5.82h8.37c3.64 0 5.81-2.17 5.81-5.81v-8.38c.01-3.64-2.16-5.81-5.8-5.81zm2.56 8c0 .41-.34.75-.75.75s-.75-.34-.75-.75v-2.19l-9.44 9.44h2.19c.41 0 .75.34.75.75s-.34.75-.75.75h-4c-.1 0-.2-.02-.29-.06-.18-.08-.33-.22-.41-.41-.03-.09-.05-.18-.05-.28v-4c0-.41.34-.75.75-.75s.75.34.75.75v2.19l9.44-9.44h-2.19c-.41 0-.75-.34-.75-.75s.34-.75.75-.75h4c.1 0 .19.02.29.06.18.08.33.22.41.41.03.09.05.18.05.28z" fill="rgb(0,0,0)"></path>
                                </svg>