<?xml version="1.0" encoding="iso-8859-1"?>
<!-- Generator: Adobe Illustrator 19.0.0, SVG Export Plug-In . SVG Version: 6.00 Build 0)  -->
<svg clip-rule="evenodd" fill-rule="evenodd" height="512" stroke-linejoin="round" stroke-miterlimit="2" viewBox="0 0 24 24" width="512" xmlns="http://www.w3.org/2000/svg" id="fi_9155715">
                                    <g id="Icon">
                                        <path d="m6 22.75h-3c-.464 0-.909-.184-1.237-.513-.329-.328-.513-.773-.513-1.237v-18c0-.464.184-.909.513-1.237.328-.329.773-.513 1.237-.513h11c.464 0 .909.184 1.237.513.329.328.513.773.513 1.237v19c0 .414-.336.75-.75.75h-4v-5.75c0-.552-.448-1-1-1h-3c-.552 0-1 .448-1 1zm3.25-11.25h-1.5v1.5h1.5zm3-7h-1.5v1.5h1.5zm0 3.5h-1.5v1.5h1.5zm0 3.5h-1.5v1.5h1.5zm-6-7h-1.5v1.5h1.5zm0 3.5h-1.5v1.5h1.5zm0 3.5h-1.5v1.5h1.5zm3-7h-1.5v1.5h1.5zm0 3.5h-1.5v1.5h1.5z"></path>
                                        <path d="m16.75 7.25h4.25c.966 0 1.75.783 1.75 1.75v12c0 .967-.784 1.75-1.75 1.75h-4.418c.108-.227.168-.482.168-.75zm3.5 3.5h-1.5v1.5h1.5zm0 3.5h-1.5v1.5h1.5zm0 3.5h-1.5v1.5h1.5z"></path>
                                    </g>
                                </svg>