<?xml version="1.0" encoding="iso-8859-1"?>
<!-- Generator: Adobe Illustrator 19.0.0, SVG Export Plug-In . SVG Version: 6.00 Build 0)  -->
<svg id="fi_5931904" enable-background="new 0 0 512 512" height="512" viewBox="0 0 512 512" width="512" xmlns="http://www.w3.org/2000/svg">
                                    <g>
                                        <g>
                                            <g>
                                                <path d="m335.148 80-121.429 170h69.8l121.428-170z"></path>
                                                <path d="m496 80h-54.185l-121.429 170h69.799l117.461-164.445c-2.75-3.387-6.943-5.555-11.646-5.555z"></path>
                                                <path d="m228.482 80-121.429 170h69.799l121.429-170z"></path>
                                                <path d="m427.053 250h68.947c8.284 0 15-6.716 15-15v-102.526z"></path>
                                                <path d="m84.947 80h-68.947c-8.284 0-15 6.716-15 15v102.526z"></path>
                                                <path d="m121.815 80-117.461 164.445c2.75 3.387 6.943 5.555 11.646 5.555h54.186l121.428-170z"></path>
                                            </g>
                                            <path d="m471 452h-90c-16.569 0-30 13.431-30 30v15c0 8.284 6.716 15 15 15h120c8.284 0 15-6.716 15-15v-15c0-16.569-13.431-30-30-30z"></path>
                                            <path d="m131 452h-90c-16.569 0-30 13.431-30 30v15c0 8.284 6.716 15 15 15h120c8.284 0 15-6.716 15-15v-15c0-16.569-13.431-30-30-30z"></path>
                                        </g>
                                        <path d="m388.5 37.5v12.5h75v-12.5c0-20.711-16.789-37.5-37.5-37.5-20.711 0-37.5 16.789-37.5 37.5z"></path>
                                        <path d="m48.5 37.5v12.5h75v-12.5c0-20.711-16.789-37.5-37.5-37.5-20.711 0-37.5 16.789-37.5 37.5z"></path>
                                        <path d="m396 280h60v142h-60z"></path>
                                        <path d="m56 280h60v142h-60z"></path>
                                        <path d="m146 325h220v60h-220z"></path>
                                    </g>
                                </svg>