<?xml version="1.0" encoding="iso-8859-1"?>
<!-- Generator: Adobe Illustrator 19.0.0, SVG Export Plug-In . SVG Version: 6.00 Build 0)  -->
<svg id="fi_2205497" enable-background="new 0 0 512 512" height="512" viewBox="0 0 512 512" width="512" xmlns="http://www.w3.org/2000/svg">
                                    <circle cx="256.001" cy="346.888" r="17.133"></circle>
                                    <circle cx="256.001" cy="165.11" r="17.133"></circle>
                                    <path d="m498.198 13.815c-8.897-8.909-20.734-13.815-33.331-13.815h-179.488c-12.591 0-24.429 4.904-33.333 13.809l-238.235 238.235c-8.907 8.906-13.811 20.743-13.811 33.331 0 12.59 4.906 24.427 13.811 33.326l179.484 179.485c8.902 8.908 20.739 13.814 33.329 13.814 12.589 0 24.426-4.904 33.332-13.811l238.235-238.235c8.905-8.904 13.809-20.742 13.809-33.333v-179.488c0-12.597-4.906-24.435-13.802-33.318zm-242.197 104.162c25.989 0 47.133 21.144 47.133 47.133s-21.144 47.133-47.133 47.133-47.133-21.144-47.133-47.133 21.144-47.133 47.133-47.133zm0 276.044c-25.989 0-47.133-21.144-47.133-47.133s21.144-47.133 47.133-47.133 47.133 21.144 47.133 47.133-21.144 47.133-47.133 47.133zm96.399-123.022h-192.798c-8.284 0-15-6.716-15-15s6.716-15 15-15h192.798c8.284 0 15 6.716 15 15s-6.715 15-15 15zm64.267-160.666c-8.28 0-15-6.72-15-15s6.72-15 15-15 15 6.72 15 15-6.72 15-15 15z"></path>
                                </svg>