<?xml version="1.0" encoding="iso-8859-1"?>
<!-- Generator: Adobe Illustrator 19.0.0, SVG Export Plug-In . SVG Version: 6.00 Build 0)  -->
<svg id="fi_2541410" height="512" viewBox="0 0 16.933333 16.933333" width="512" xmlns="http://www.w3.org/2000/svg" xmlns:svg="http://www.w3.org/2000/svg">
                                    <g id="layer2">
                                        <path id="path820" d="m5.0235195.00001179c-.1471466.00136962-.2620016.12260132-.2620016.26975289v3.96879242c0 .3531337.5296888.3531337.5296888 0v-3.96879242c0-.1493816-.118304-.27114332-.2676872-.26975289zm-3.1760676 2.37610541c-.1461343.00293-.259418.1235913-.259418.269753v3.7026494c0 .3534638.529172.3534638.529172 0v-3.7026494c0-.1502117-.1195683-.2727688-.269754-.269753zm6.3500688 0c-.1463412.00279-.259936.1233913-.259936.269753v3.7026494c0 .3534638.529173.3534638.529173 0v-3.7026494c0-.1500117-.1192569-.2726128-.269237-.269753zm3.9724113.005c-.155832 0-.284349.1368033-.261486.290943l1.05572 7.1174559s-1.057973 0-1.586959 0c-.233928 0-.353537.2821529-.189655.4490749l2.646379 2.695469c.04957.05049.116864.0798.187587.0801.07144.000302.139593-.02911.189655-.0801l2.646378-2.695469c.163883-.166923.04427-.4490749-.189654-.4490749-.529021 0-1.587064 0-1.587064 0l1.057892-7.1174657c.02303-.1549434-.106899-.2909332-.263553-.2909332zm-7.1422784 4.4974381c-2.7814917 0-5.02765369 2.2543838-5.02765369 5.0276547 0 2.773249 2.25442999 5.027123 5.02765369 5.027123 2.7732241 0 5.0271394-2.253874 5.0271394-5.027123-.000001-2.7732709-2.2456473-5.0276547-5.0271394-5.0276547zm0 1.1916727c2.1229759 0 3.8354661 1.7202781 3.8354661 3.835982 0 2.115682-1.7135969 3.835461-3.8354661 3.835461-2.1218686 0-3.8359827-1.719779-3.8359827-3.835461 0-2.1157039 1.7203149-3.835982 3.8359827-3.835982zm0 .5291656c-1.8296678 0-3.3068097 1.4770854-3.3068097 3.3068164 0 1.829709 1.4833419 3.306285 3.3068097 3.306285 1.8234689 0 3.3062939-1.476576 3.3062939-3.306285 0-1.829731-1.4795489-3.3068164-3.3062939-3.3068164zm.00151 1.0578311c.1296741.000768.263553.0894.263553.2640728v.2589035c.463672.117632.7423362.444564.8733412.858869.09027.346564-.3929251.485565-.505918.158642-.1058521-.334774-.3164261-.505195-.6407941-.517795-.3605078.003-.6387278.273002-.6387278.617016 0 .163082.05844.213882.1369438.252183.1055632.0516.3108463.0832.538991.106971.228156.0238.4800949.0405.7167599.156071.236677.115552.4335701.341654.4335701.726568-.000009.548626-.3947631 1.005541-.9141661 1.121912v.229962c0 .344714-.5291728.358084-.5291728 0v-.232542c-.346238-.089-.7005029-.332024-.8707559-.859389-.09607-.338973.3893479-.493515.5053999-.160201.100692.331672.3381582.517484.640795.523484.3605178-.003.6387279-.285402.6387279-.623226 0-.180252-.07164-.215362-.136944-.251662-.1055529-.0515-.3108349-.0821-.5389909-.105942-.2281458-.0238-.4800929-.0405-.7167601-.156061-.2366658-.115561-.4335697-.338024-.4335697-.728128 0-.554056.3937558-1.00567.9120989-1.122422v-.2532135c0-.1777719.1359569-.2648428.2656187-.2640728zm7.7148594 3.4752373-.687304.396354c-.304198.175425-.04359.63589.263553.458896l.68782-.396364c.307945-.177457.04365-.636343-.264069-.458886zm2.293425.458926.687304.396364c.304285.175479.573476-.281363.26562-.458896l-.687312-.396354c-.306419-.176704-.574637.280673-.265612.458886zm-1.014936.167952c-.132295 0-.264586.0879-.264586.263552v.794789c0 .146131.115358.265808.261485.267692.148554.0019.267687-.119131.267687-.267692v-.794789c0-.175672-.132292-.263552-.264586-.263552z" font-variant-ligatures="normal" font-variant-position="normal" font-variant-caps="normal" font-variant-numeric="normal" font-variant-alternates="normal" font-feature-settings="normal" text-indent="0" text-align="start" text-decoration-line="none" text-decoration-style="solid" text-decoration-color="rgb(0,0,0)" text-transform="none" text-orientation="mixed" white-space="normal" shape-padding="0" isolation="auto" mix-blend-mode="normal" solid-color="rgb(0,0,0)" solid-opacity="1" vector-effect="none"></path>
                                    </g>
                                </svg>