<svg id="Capa_1" enable-background="new 0 0 512 512" height="512" viewBox="0 0 512 512" width="512" xmlns="http://www.w3.org/2000/svg"><g><path d="m370.374 428.197c5.24-11.392 14.572-19.742 25.854-23.677v-42.52c0-24.813 20.187-45 45-45h25.772c5.258 0 10.305.915 15 2.58v-274.58c0-24.813-20.187-45-45-45h-300c-24.813 0-45 20.187-45 45v22h258c33.084 0 60 26.916 60 60v140c0 33.084-26.916 60-60 60h-258v140c0 24.813 20.187 45 45 45h270.702l-30.612-35.714c-11.574-13.504-14.148-31.931-6.716-48.089z"/><path d="m496.971 432h-14.971v-70c0-8.284-6.716-15-15-15h-25.772c-8.284 0-15 6.716-15 15v70h-14.971c-12.815 0-19.729 15.032-11.389 24.762l42.857 50c5.986 6.984 16.791 6.984 22.778 0l42.857-50c8.34-9.73 1.426-24.762-11.389-24.762z"/><path d="m192.012 157h-18.304c.021 12.221.054 32.202.054 39.889 0 9.163.058 28.278.096 40.062 6.496-.037 14.523-.095 18.808-.17 20.426-.357 29.729-20.872 29.729-39.781 0-19.337-7.981-40-30.383-40z"/><path d="m94.917 157h-17.814c.019 6.62.04 14.699.04 18.22 0 4.152.036 11.935.068 18.288 6.165-.033 13.643-.067 17.706-.067 10.176 0 18.773-8.344 18.773-18.22s-8.597-18.221-18.773-18.221z"/><path d="m380 267v-140c0-16.569-13.431-30-30-30h-320c-16.569 0-30 13.431-30 30v140c0 16.569 13.431 30 30 30h320c16.569 0 30-13.431 30-30zm-285.083-53.56c-4.081 0-11.66.035-17.844.068v33.492c0 5.523-4.477 10-10 10s-10-4.477-10-10v-99.968c-.008-2.658 1.042-5.209 2.917-7.091 1.876-1.882 4.425-2.94 7.083-2.94h27.844c21.379 0 38.773 17.146 38.773 38.22s-17.393 38.219-38.773 38.219zm134.738 24.705c-9.011 11.76-22.022 18.377-36.639 18.633-8.052.141-28.23.219-29.085.222-.013 0-.025 0-.038 0-2.639 0-5.171-1.043-7.045-2.903-1.882-1.869-2.945-4.409-2.955-7.061-.001-.363-.13-36.399-.13-50.147 0-11.402-.072-49.87-.072-49.871-.005-2.655 1.046-5.204 2.922-7.083s4.422-2.935 7.077-2.935h28.322c30.136 0 50.383 24.112 50.383 60 0 15.81-4.524 30.422-12.74 41.145zm83.271-81.145h-30.531v29.053h27.311c5.523 0 10 4.477 10 10s-4.477 10-10 10h-27.311v40.947c0 5.523-4.477 10-10 10s-10-4.477-10-10v-100c0-2.652 1.054-5.196 2.929-7.071s4.419-2.929 7.071-2.929h40.531c5.523 0 10 4.477 10 10s-4.477 10-10 10z"/></g></svg>