<?xml version="1.0" encoding="iso-8859-1"?>
<!-- Generator: Adobe Illustrator 19.0.0, SVG Export Plug-In . SVG Version: 6.00 Build 0)  -->
<svg id="fi_4719486" enable-background="new 0 0 512 512" height="512" viewBox="0 0 512 512" width="512" xmlns="http://www.w3.org/2000/svg">
                                    <path clip-rule="evenodd" d="m391.277 207.691v52.979c-4.087-.392-8.229-.595-12.419-.595-32.421 0-62.036 12.013-84.641 31.829v-23.944c0-19.75-16.108-35.858-35.858-35.858h-17.571c-19.75 0-35.858 16.108-35.858 35.858v118.967h-69.809c-14.987 0-27.251-12.262-27.251-27.25v-151.986l141.703-101.616zm-319.448 1.235 177.745-127.462 177.745 127.462c13.378 9.583 31.992 6.507 41.574-6.871 9.583-13.378 6.507-31.992-6.871-41.574l-194.569-139.527c-10.125-7.596-24.395-8.14-35.231-.378l-195.096 139.905c-13.378 9.583-16.454 28.197-6.871 41.574s28.197 16.454 41.574 6.871zm383.725 102.917c-19.627-19.627-46.743-31.767-76.695-31.767s-57.068 12.14-76.695 31.767-31.767 46.743-31.767 76.695 12.14 57.068 31.767 76.695 46.743 31.767 76.695 31.767 57.068-12.14 76.695-31.767 31.767-46.743 31.767-76.695-12.14-57.068-31.767-76.695zm-110.178 129.14c4.705 4.438 9.009 8.007 14.218 10.642 2.964 1.499 6.071 2.629 9.496 3.357l.185 7.68c.129 5.501 4.694 9.856 10.195 9.727s9.856-4.694 9.727-10.195l-.179-7.404c7.261-1.677 13.791-5.104 19.001-9.756 7.839-7 12.688-16.731 12.688-27.532 0-10.802-4.849-20.532-12.688-27.532-7.547-6.739-17.864-10.908-29.161-10.908-6.292 0-11.9-2.198-15.879-5.752-3.688-3.293-5.969-7.783-5.969-12.688s2.281-9.396 5.969-12.688c4.007-3.578 9.617-5.792 15.879-5.792 3.07 0 7.806 1.323 12.302 3.414 3.535 1.644 6.515 3.536 7.633 5.236 3.02 4.595 9.194 5.872 13.789 2.851 4.595-3.02 5.872-9.194 2.851-13.789-3.328-5.064-9.378-9.384-15.914-12.423-3.479-1.618-7.237-2.934-10.859-3.839l-.219-9.177c-.129-5.501-4.694-9.856-10.195-9.727s-9.856 4.694-9.727 10.195l.203 8.476c-7.285 1.667-13.824 5.086-19.025 9.73-7.839 7-12.688 16.731-12.688 27.532 0 10.802 4.849 20.533 12.688 27.532 7.547 6.739 17.864 10.908 29.161 10.908 6.292 0 11.9 2.198 15.88 5.752 3.688 3.293 5.969 7.783 5.969 12.688s-2.281 9.396-5.969 12.689c-3.98 3.554-9.588 5.752-15.88 5.752-4.348 0-7.549-.746-10.28-2.128-3.063-1.55-6.066-4.093-9.531-7.361-4.013-3.775-10.327-3.583-14.102.43s-3.582 10.325.431 14.1z" fill-rule="evenodd"></path>
                                </svg>