<?xml version="1.0" encoding="iso-8859-1"?>
<!-- Generator: Adobe Illustrator 19.0.0, SVG Export Plug-In . SVG Version: 6.00 Build 0)  -->
<svg height="512" viewBox="0 0 64 64" width="512" xmlns="http://www.w3.org/2000/svg" id="fi_9141006">
                                    <g id="Mortgage">
                                        <path d="m36.49 6.13 22.7395 12.73639a1 1 0 0 0 1.40808-.47912l1.28242-2.99727a.99991.99991 0 0 0 -.43-1.26l-25-14a1.00507 1.00507 0 0 0 -.98 0l-25 14a.99991.99991 0 0 0 -.43 1.26l1.28241 2.99726a1 1 0 0 0 1.40808.47912l22.73951-12.73638a1.00507 1.00507 0 0 1 .98 0z"></path>
                                        <rect height="26" rx="1" width="6" x="6" y="35"></rect>
                                        <path d="m0 37h4v22h-4z"></path>
                                        <path d="m61.48 37.84a4.68157 4.68157 0 0 0 -4.88995.23l-15.01005 10.01a7.18421 7.18421 0 0 1 .42 2.41 7.04717 7.04717 0 0 1 -7.02 7.03 7.08513 7.08513 0 0 1 -3.15-.75l-11.2-5.6a1.00176 1.00176 0 1 1 .9-1.79l11.2 5.6a5.02208 5.02208 0 0 0 7.27-4.49 4.70976 4.70976 0 0 0 -.16-1.25 4.98582 4.98582 0 0 0 -2.62-3.25l-15.66-7.83a11.05157 11.05157 0 0 0 -4.92-1.16h-2.64v22h1.78a9.119 9.119 0 0 1 3.81.84l6.03 2.82a14.39079 14.39079 0 0 0 14.25-1.24l22.1-15.48a4.77048 4.77048 0 0 0 2.03-3.9 4.68329 4.68329 0 0 0 -2.52-4.2z"></path>
                                        <path d="m28 20.92773v3.585a12.14636 12.14636 0 0 0 8 11.42871 12.14722 12.14722 0 0 0 7.99951-11.42774l.00049-3.58597a15.03569 15.03569 0 0 1 -8-3.55859 15.03569 15.03569 0 0 1 -8 3.55859zm11.707 3.36527a.99962.99962 0 0 1 0 1.41406l-4 4a.99963.99963 0 0 1 -1.41406 0l-2-2a.99989.99989 0 0 1 1.41406-1.41406l1.293 1.29294 3.293-3.293a.99962.99962 0 0 1 1.414.00006z"></path>
                                        <path d="m16 19.34v15.66h.64a12.99377 12.99377 0 0 1 5.81 1.37l15.66 7.83a7.19431 7.19431 0 0 1 2.52 2.11l14.85-9.9a5.49755 5.49755 0 0 1 .52-.31v-16.76l-20-11.19zm29.00293-.34a1.00227 1.00227 0 0 1 .99707 1l-.00049 4.51367a14.1437 14.1437 0 0 1 -9.68262 13.43457.993.993 0 0 1 -.63281 0 14.14407 14.14407 0 0 1 -9.68408-13.43554v-4.5127a1.00036 1.00036 0 0 1 1-1 13.00459 13.00459 0 0 0 8.293-3.707.99962.99962 0 0 1 1.41406 0 13.004 13.004 0 0 0 8.29587 3.707z"></path>
                                    </g>
                                </svg>