<?xml version="1.0" encoding="iso-8859-1"?>
<!-- Generator: Adobe Illustrator 19.0.0, SVG Export Plug-In . SVG Version: 6.00 Build 0)  -->
<svg id="fi_10384604" enable-background="new 0 0 512 512" viewBox="0 0 512 512" xmlns="http://www.w3.org/2000/svg">
                                    <g>
                                        <path d="m287.756 38.147h75.603v186.88c6.502-.814 13.123-1.237 19.842-1.237 5.947 0 11.815.34 17.594.98v-224.16h-113.039z"></path>
                                        <path d="m138.543.61h119.213v37.537h-119.213z"></path>
                                        <path d="m253.389 473.954h-215.953v-435.807h71.107v-37.537h-108.543v510.78h290.425c-14.316-10.341-26.848-23.003-37.036-37.436z"></path>
                                        <path d="m67.436 68.147v375.807h169.304c-7.944-18.888-12.34-39.622-12.34-61.364 0-7.979.598-15.82 1.74-23.486h-102.597v-30h110.136c4.808-13.4 11.368-25.97 19.404-37.437h-129.54v-30h156.849c15.409-13.12 33.344-23.353 52.967-29.856v-163.664zm213.157 156.084h-157.05v-30h157.05zm0-97.435v30h-157.05v-30z"></path>
                                        <path d="m383.2 253.79c-71.021 0-128.8 57.779-128.8 128.8s57.779 128.8 128.8 128.8 128.8-57.78 128.8-128.8-57.779-128.8-128.8-128.8zm52.382 100.479h-30v-.938c0-7.729-6.288-14.016-14.017-14.016h-16.73c-7.729 0-14.016 6.287-14.016 14.016v.411c0 7.729 6.287 14.016 14.016 14.016h16.73c24.271 0 44.017 19.745 44.017 44.016 0 22.016-16.248 40.306-37.382 43.515v25.497h-30v-25.497c-21.134-3.209-37.381-21.5-37.381-43.515v-1.229h30v1.229c0 7.729 6.287 14.016 14.016 14.016h16.73c7.729 0 14.017-6.287 14.017-14.016s-6.288-14.016-14.017-14.016h-16.73c-24.271 0-44.016-19.745-44.016-44.016v-.411c0-22.016 16.247-40.306 37.381-43.515v-25.496h30v25.496c21.134 3.209 37.382 21.5 37.382 43.515z"></path>
                                    </g>
                                    <g></g>
                                    <g></g>
                                    <g></g>
                                    <g></g>
                                    <g></g>
                                    <g></g>
                                    <g></g>
                                    <g></g>
                                    <g></g>
                                    <g></g>
                                    <g></g>
                                    <g></g>
                                    <g></g>
                                    <g></g>
                                    <g></g>
                                </svg>