<?xml version="1.0" encoding="iso-8859-1"?>
<!-- Generator: Adobe Illustrator 19.0.0, SVG Export Plug-In . SVG Version: 6.00 Build 0)  -->
<svg height="512pt" viewBox="0 0 512 512" width="512pt" xmlns="http://www.w3.org/2000/svg" id="fi_1204048">
                                                <path d="m377 0c-74.441406 0-135 60.558594-135 135s60.558594 135 135 135 135-60.558594 135-135-60.558594-135-135-135zm-15 201.210938-55.605469-55.605469 21.210938-21.210938 34.394531 34.394531 64.394531-64.394531 21.210938 21.210938zm0 0"></path>
                                                <path d="m90 503.210938v-82.210938h-81.210938zm0 0"></path>
                                                <path d="m301 301h-241v-30h222.136719c-12.214844-8.507812-23.082031-18.585938-32.585938-30h-189.550781v-30h169.84375c-4.914062-9.523438-8.859375-19.515625-11.859375-30h-157.984375v-30h152.433594c-.460938-5.011719-1.433594-9.871094-1.433594-15 0-27.019531 6.65625-52.46875 18.214844-75h-229.214844v330h120v121h241v-211.761719c-21.460938-1.945312-41.6875-8.109375-60-17.5zm0 120h-151v-30h151zm0-60h-151v-30h151zm0 0"></path>
                                            </svg>
