<svg height="512pt" viewBox="0 -43 512 511" width="512pt" xmlns="http://www.w3.org/2000/svg"><path d="m504.5.5h-408.261719c-4.144531 0-7.5 3.355469-7.5 7.5s3.355469 7.5 7.5 7.5h400.761719v395h-482v-395h48.308594c4.144531 0 7.5-3.355469 7.5-7.5s-3.355469-7.5-7.5-7.5h-55.808594c-4.144531 0-7.5 3.355469-7.5 7.5v410c0 4.144531 3.355469 7.5 7.5 7.5h497c4.144531 0 7.5-3.355469 7.5-7.5v-410c0-4.144531-3.355469-7.5-7.5-7.5zm0 0"/><path d="m416.238281 380.5c-4.144531 0-7.5 3.355469-7.5 7.5s3.355469 7.5 7.5 7.5h58.261719c4.144531 0 7.5-3.355469 7.5-7.5v-350c0-4.144531-3.355469-7.5-7.5-7.5h-437c-4.144531 0-7.5 3.355469-7.5 7.5v350c0 4.144531 3.355469 7.5 7.5 7.5h346.179688c4.144531 0 7.5-3.355469 7.5-7.5s-3.355469-7.5-7.5-7.5h-303.769532l6.269532-58.117188h339.640624l6.269532 58.117188zm-107.160156-103.121094-16.992187-23.488281 33.457031-46.871094c.609375-.851562 1.800781-.859375 2.410156 0l50.230469 70.359375zm87.535156.003906-56.449219-79.082031c-6.585937-9.214843-20.242187-9.21875-26.828124.003907l-30.527344 42.761718-56.949219-78.71875c-3.15625-4.359375-8.242187-6.964844-13.609375-6.964844-5.363281 0-10.453125 2.605469-13.605469 6.964844l-41.804687 57.78125c-2.429688 3.355469-1.675782 8.046875 1.679687 10.472656 3.359375 2.429688 8.046875 1.675782 10.472657-1.679687l41.808593-57.785156c.449219-.621094 1.039063-.753907 1.453125-.753907.410156 0 1 .132813 1.453125.757813 9.472657 13.09375 69.753907 96.414063 76.859375 106.238281-5.964844 0-152.007812.003906-156.632812.003906l16.304687-22.539062c2.429688-3.355469 1.675781-8.042969-1.679687-10.472656-3.355469-2.429688-8.042969-1.675782-10.472656 1.679687l-22.664063 31.332031h-24.390625l25.011719-231.882812h279.914062l25.011719 231.882812zm-351.613281 103.117188v-335h22.097656l-8.546875 101.613281c-.347656 4.128907 2.71875 7.753907 6.84375 8.105469.214844.015625.429688.023438.640625.023438 3.855469 0 7.136719-2.957032 7.464844-6.871094l8.652344-102.871094h18.800781l-36.128906 335zm42.796875-73.117188 1.617187-15h333.171876l1.617187 15zm323.25-261.882812h18.800781l8.652344 102.871094c.328125 3.914062 3.609375 6.871094 7.464844 6.871094.210937 0 .425781-.007813.640625-.023438 4.125-.351562 7.191406-3.976562 6.84375-8.105469l-8.546875-101.613281h22.097656v335h-19.824219zm0 0"/><path d="m98.785156 332.859375c-4.144531 0-7.5 3.355469-7.5 7.5s3.355469 7.5 7.5 7.5h33.742188c4.144531 0 7.5-3.355469 7.5-7.5s-3.355469-7.5-7.5-7.5zm0 0"/><path d="m362.414062 336.675781c-4.144531 0-7.5 3.355469-7.5 7.5 0 4.140625 3.355469 7.5 7.5 7.5h33.742188c4.144531 0 7.5-3.359375 7.5-7.5 0-4.144531-3.355469-7.5-7.5-7.5zm0 0"/><path d="m185.203125 354.140625c-4.140625 0-7.5 3.355469-7.5 7.5 0 4.140625 3.359375 7.5 7.5 7.5h125.441406c4.144531 0 7.5-3.359375 7.5-7.5 0-4.144531-3.355469-7.5-7.5-7.5zm0 0"/><path d="m296.683594 90.09375c-15.714844 0-28.5 12.785156-28.5 28.5s12.785156 28.5 28.5 28.5 28.5-12.785156 28.5-28.5-12.785156-28.5-28.5-28.5zm0 42c-7.441406 0-13.5-6.058594-13.5-13.5 0-7.445312 6.058594-13.5 13.5-13.5 7.445312 0 13.5 6.054688 13.5 13.5 0 7.441406-6.054688 13.5-13.5 13.5zm0 0"/></svg>