<svg id="Layer_1" enable-background="new 0 0 500 500" viewBox="0 0 500 500" xmlns="http://www.w3.org/2000/svg"><g><path d="m465.816 475h-431.632c-5.074 0-9.184-4.111-9.184-9.184v-431.632c0-5.074 4.111-9.184 9.184-9.184h293.59c5.073 0 9.184 4.11 9.184 9.184v57.144c0 5.073-4.111 9.184-9.184 9.184-5.074 0-9.184-4.111-9.184-9.184v-47.96h-275.222v413.265h413.265v-205.868h-128.858c-5.074 0-9.184-4.111-9.184-9.184v-72.701c0-5.073 4.11-9.184 9.184-9.184 5.073 0 9.184 4.111 9.184 9.184v63.518h128.858c5.073 0 9.184 4.11 9.184 9.184v224.235c-.001 5.072-4.112 9.183-9.185 9.183z"/><path d="m355.326 475c-5.073 0-9.184-4.111-9.184-9.184v-60.459h-96.142c-5.074 0-9.184-4.111-9.184-9.184 0-5.074 4.11-9.184 9.184-9.184h105.325c5.073 0 9.183 4.11 9.183 9.184v69.643c.001 5.073-4.11 9.184-9.182 9.184z"/><path d="m250 332.653h-139.572c-5.074 0-9.184-4.11-9.184-9.184v-53.951c0-5.073 4.11-9.183 9.184-9.183 5.073 0 9.184 4.11 9.184 9.183v44.768h121.205v-72.704c0-5.074 4.11-9.184 9.184-9.184h77.774c5.073 0 9.184 4.11 9.184 9.184 0 5.073-4.111 9.184-9.184 9.184h-68.59v72.704c-.001 5.073-4.112 9.183-9.185 9.183z"/><path d="m110.428 215.818c-5.074 0-9.184-4.11-9.184-9.184v-50.002c0-5.073 4.11-9.184 9.184-9.184h66.581v-113.264c0-5.074 4.111-9.184 9.184-9.184 5.074 0 9.184 4.11 9.184 9.184v122.449c0 5.074-4.11 9.184-9.184 9.184h-66.581v40.818c-.001 5.073-4.112 9.183-9.184 9.183z"/><path d="m255.835 165.816h-69.643c-5.073 0-9.184-4.11-9.184-9.184 0-5.073 4.111-9.184 9.184-9.184h69.643c5.074 0 9.184 4.111 9.184 9.184 0 5.074-4.11 9.184-9.184 9.184z"/><path d="m158.642 475c-5.074 0-9.184-4.111-9.184-9.184v-46.424c0-5.073 4.11-9.183 9.184-9.183 5.073 0 9.183 4.11 9.183 9.183v46.424c0 5.073-4.11 9.184-9.183 9.184z"/><path d="m158.642 377.041c-5.074 0-9.184-4.111-9.184-9.184v-44.388c0-5.073 4.11-9.184 9.184-9.184 5.073 0 9.183 4.111 9.183 9.184v44.388c0 5.073-4.11 9.184-9.183 9.184z"/><path d="m349.968 306.633c-5.073 0-9.184-4.111-9.184-9.184v-55.868c0-5.074 4.111-9.184 9.184-9.184s9.184 4.11 9.184 9.184v55.868c0 5.073-4.111 9.184-9.184 9.184z"/></g></svg>