<?xml version="1.0" encoding="UTF-8"?>
<svg id="Line" xmlns="http://www.w3.org/2000/svg" version="1.1" viewBox="0 0 64 64">
  <defs>
    <style>
      .cls-1 {
        fill: #324554;
      }

      .cls-1, .cls-2 {
        stroke-width: 0px;
      }

      .cls-2 {
        fill: #fff;
      }
    </style>
  </defs>
  <g>
    <path class="cls-1" d="M15.8,59.6h32.3c2.7,0,4.8-2.2,4.8-4.8V20.6h-11.3c-2.7,0-4.8-2.2-4.8-4.8V4.4H15.8c-2.7,0-4.8,2.2-4.8,4.8v45.4c0,2.7,2.2,4.8,4.8,4.8v.2Z"/>
    <path class="cls-1" d="M41.7,17.4h10.4l-12-12v10.4c0,.9.7,1.6,1.6,1.6Z"/>
  </g>
  <path class="cls-2" d="M27.3,50.1c-.5,0-.8,0-1.1-.5l-6.6-6.5c-.6-.6-.6-1.7,0-2.3s1.5-.6,2.2,0l5.4,5.4,14.9-15.1c.6-.6,1.7-.6,2.3,0s.6,1.7,0,2.3h0l-16,16.2c-.3.3-.8.5-1.1.5Z"/>
</svg>