<?xml version="1.0" encoding="utf-8"?>
<!-- Generator: Adobe Illustrator 27.8.1, SVG Export Plug-In . SVG Version: 6.00 Build 0)  -->
<svg version="1.1" id="Layer_1" xmlns="http://www.w3.org/2000/svg" xmlns:xlink="http://www.w3.org/1999/xlink" x="0px" y="0px"
	 viewBox="0 0 16 16" style="enable-background:new 0 0 16 16;" xml:space="preserve">
<style type="text/css">
	.st0{fill:#334455;}
</style>
<g id="Mask_Group_23" transform="translate(-320 -298)">
	<g id="Pin" transform="translate(322 298.116)">
		<path id="Path_6117" class="st0" d="M5.9,0.4C2.8,0.4,0.3,2.9,0.3,6c0,4,5.2,9.1,5.5,9.3c0.1,0.1,0.2,0.1,0.3,0
			c0.2-0.2,5.5-5.3,5.5-9.3C11.6,2.9,9.1,0.4,5.9,0.4z M5.9,8.6C4.5,8.6,3.3,7.4,3.3,6s1.2-2.6,2.6-2.6S8.6,4.6,8.6,6l0,0
			C8.6,7.4,7.4,8.6,5.9,8.6z"/>
	</g>
</g>
</svg>
