<svg xmlns="http://www.w3.org/2000/svg" version="1.1" xmlns:xlink="http://www.w3.org/1999/xlink" width="512" height="512" x="0" y="0" viewBox="0 0 512 512" style="enable-background:new 0 0 512 512" xml:space="preserve" class=""><g><path d="m238.711 340.353-67.018-67.018 101.578-101.577 67.018 67.018zM13.867 316.561c-18.475 18.477-18.475 48.543.001 67.024l23.753 23.753-12.301 12.3c-8.951 8.953-13.882 20.854-13.882 33.514s4.932 24.562 13.883 33.511c8.95 8.953 20.853 13.884 33.514 13.884 12.562 0 24.376-4.854 33.303-13.674.072-.069.143-.139.213-.209l12.298-12.297 23.755 23.755c8.95 8.949 20.852 13.878 33.513 13.879h.001c12.662 0 24.566-4.931 33.521-13.885a47.097 47.097 0 0 0 9.94-14.647L28.506 306.596a47.28 47.28 0 0 0-14.639 9.965zM498.106 128.42l-23.755-23.755 12.127-12.127.177-.174c18.477-18.477 18.478-48.545.001-67.029-8.951-8.951-20.853-13.881-33.512-13.881s-24.562 4.929-33.517 13.879l-.228.233-12.073 12.072-23.756-23.757C374.62 4.931 362.718 0 350.059 0c-12.661 0-24.563 4.931-33.513 13.883a47.127 47.127 0 0 0-9.947 14.657l176.866 176.866a47.365 47.365 0 0 0 14.642-9.962c8.952-8.952 13.883-20.854 13.883-33.514s-4.931-24.561-13.884-33.51zM217.49 361.522l-67.027-67.027-46.661-46.66c-8.951-8.951-20.853-13.881-33.511-13.881-12.659 0-24.563 4.93-33.52 13.884a47.101 47.101 0 0 0-9.954 14.644L249.52 485.184a47.335 47.335 0 0 0 14.635-9.973c8.951-8.952 13.88-20.854 13.88-33.515s-4.93-24.563-13.881-33.512zM247.819 36.791c-18.475 18.479-18.475 48.547.001 67.026l46.661 46.66h-.001l67.031 67.029.001-.001 46.658 46.657.002.002.002.002c8.953 8.95 20.854 13.879 33.512 13.879h.002c12.657 0 24.56-4.931 33.51-13.88a47.356 47.356 0 0 0 9.974-14.627L262.451 26.818a47.363 47.363 0 0 0-14.632 9.973z" fill="#324554" opacity="1" data-original="#000000" class=""></path></g></svg>