<?xml version="1.0" encoding="utf-8"?>
<!-- Generator: Adobe Illustrator 27.8.1, SVG Export Plug-In . SVG Version: 6.00 Build 0)  -->
<svg version="1.1" id="Layer_1" xmlns="http://www.w3.org/2000/svg" xmlns:xlink="http://www.w3.org/1999/xlink" x="0px" y="0px"
	 viewBox="0 0 16 16" style="enable-background:new 0 0 16 16;" xml:space="preserve">
<style type="text/css">
	.st0{fill:#334455;}
</style>
<g id="Mask_Group_28" transform="translate(-320 -433)">
	<g id="bed" transform="translate(320 434.528)">
		<path id="Path_6132" class="st0" d="M0.6,12v0.9c0,0.2,0.2,0.4,0.4,0.4s0.4-0.2,0.4-0.4v-0.5h13.1v0.5c0,0.2,0.2,0.4,0.5,0.4
			c0.2,0,0.4-0.2,0.4-0.4V9.6H0.5L0.6,12L0.6,12z"/>
		<path id="Path_6133" class="st0" d="M13.9,5.1H2.2c-0.9,0-1.6,0.7-1.6,1.6v2.1h14.9V6.7C15.5,5.8,14.8,5.1,13.9,5.1L13.9,5.1z"/>
		<path id="Path_6134" class="st0" d="M6.5,3.2C6.1,3.2,5.8,3.6,5.8,4v0.3h4.6V4c0-0.4-0.3-0.7-0.7-0.7L6.5,3.2L6.5,3.2z"/>
		<path id="Path_6135" class="st0" d="M4.8,3c0-0.9,0.8-1.6,1.6-1.6h3.3c0.9,0,1.6,0.7,1.6,1.6v1.3h2.4V1.3c0-0.9-0.8-1.6-1.6-1.6
			H4.1c-0.9,0-1.6,0.7-1.6,1.6v3.1h2.4L4.8,3L4.8,3z"/>
	</g>
</g>
</svg>
