<svg xmlns="http://www.w3.org/2000/svg" version="1.1" xmlns:xlink="http://www.w3.org/1999/xlink" width="512" height="512" x="0" y="0" viewBox="0 0 512 512" style="enable-background:new 0 0 512 512" xml:space="preserve" class=""><g><path d="M437.397 45.568c-3.733-2.176-92.16-52.459-191.317-.448-61.035 32.043-116.843 15.061-139.413 5.504V21.333C106.667 9.557 97.131 0 85.333 0 73.536 0 64 9.557 64 21.333v469.334C64 502.464 73.536 512 85.333 512c11.797 0 21.333-9.536 21.333-21.333V309.653c16.832 5.419 39.168 10.453 65.195 10.432 28.203 0 60.544-5.867 94.059-23.445 77.589-40.789 146.987-2.219 150.08-.427a21.37 21.37 0 0 0 21.291.021A21.326 21.326 0 0 0 448 277.738V64a21.335 21.335 0 0 0-10.603-18.432z" fill="#324554" opacity="1" data-original="#000000" class=""></path></g></svg>