<?xml version="1.0" encoding="UTF-8"?>
<svg id="Layer_1" xmlns="http://www.w3.org/2000/svg" version="1.1" viewBox="0 0 16 16">
  <!-- Generator: Adobe Illustrator 29.1.0, SVG Export Plug-In . SVG Version: 2.1.0 Build 142)  -->
  <defs>
    <style>
      .st0 {
        fill: #232444;
        fill-rule: evenodd;
      }
    </style>
  </defs>
  <path class="st0" d="M13.1,2.8c0-.4.3-.7.5-.7s.5.2.5.7v3.8H1.1C.5,6.6,0,7.1,0,7.7s.5,1.1,1.1,1.1h13.8c.6,0,1.1-.5,1.1-1.1,0-.5-.3-1-.8-1.1v-3.8c0-.9-.6-1.7-1.5-1.7s-1.5.8-1.5,1.7.2.5.5.5.5-.2.5-.5ZM1.8,10v-.7H.8v.7c0,1.3.6,2.4,1.5,3.1l-.5,1c-.1.3,0,.5.3.7.2.1.5,0,.6-.2l.5-1c.4.2.9.3,1.4.3h6.7c.5,0,1-.1,1.4-.3l.5,1c.1.3.4.4.7.3.3-.1.4-.4.3-.7,0,0,0,0,0,0l-.5-1c1-.7,1.6-1.9,1.6-3.1v-.7h-1v.7c0,1.6-1.3,2.9-2.9,2.9h-6.7c-1.6,0-2.9-1.3-2.9-2.9ZM14.9,7.6H1.1c0,0-.1,0-.1.1s0,.1.1.1h13.8c0,0,.1,0,.1-.1s0-.1-.1-.1Z"/>
</svg>