<?xml version="1.0" encoding="utf-8"?>
<!-- Generator: Adobe Illustrator 27.8.1, SVG Export Plug-In . SVG Version: 6.00 Build 0)  -->
<svg version="1.1" id="Layer_1" xmlns="http://www.w3.org/2000/svg" xmlns:xlink="http://www.w3.org/1999/xlink" x="0px" y="0px"
	 viewBox="0 0 16 16" style="enable-background:new 0 0 16 16;" xml:space="preserve">
<style type="text/css">
	.st0{fill:#334455;}
</style>
<g id="Mask_Group_24" transform="translate(-320 -326)">
	<g id="location_1_" transform="translate(321 324.346)">
		<g id="road-sign">
			<path id="Path_6126" class="st0" d="M0.5,7.9c0,0.1,0.1,0.2,0.2,0.2h11.4c0.1,0,0.2,0,0.2-0.1l1.2-1.3c0.1-0.1,0.1-0.2,0-0.3l0,0
				l-1.1-1.3C12.3,5,12.3,5,12.2,5H0.7C0.6,5,0.5,5,0.5,5.1s0,0.2,0,0.3l1,1.1l-1,1.1C0.4,7.7,0.4,7.8,0.5,7.9z"/>
			<path id="Path_6127" class="st0" d="M13.6,8.9c-0.1-0.1-0.2-0.1-0.3-0.1H1.8c-0.1,0-0.2,0-0.2,0.1l-1.2,1.3
				c-0.1,0.1-0.1,0.2,0,0.3l0,0l1.2,1.3c0.1,0.1,0.1,0.1,0.2,0.1h11.4c0.1,0,0.2-0.1,0.3-0.1c0-0.1,0-0.2,0-0.3l-1-1.1l1-1.1
				C13.7,9.1,13.7,9,13.6,8.9z"/>
			<path id="Path_6128" class="st0" d="M7.9,2.5c0-0.2-0.1-0.3-0.3-0.3H6.4c-0.2,0-0.3,0.1-0.3,0.3V5h1.7L7.9,2.5L7.9,2.5z"/>
			<path id="Path_6129" class="st0" d="M5.5,17c0,0.1,0.1,0.2,0.3,0.2h2.1c0.1,0,0.3-0.1,0.3-0.2v-4.8H5.5V17z"/>
		</g>
	</g>
</g>
</svg>
