<svg xmlns="http://www.w3.org/2000/svg" version="1.1" xmlns:xlink="http://www.w3.org/1999/xlink" width="512" height="512" x="0" y="0" viewBox="0 0 512 512" style="enable-background:new 0 0 512 512" xml:space="preserve" class=""><g><g data-name="29 Residential"><path d="M360.45 48.53H45.22a10.39 10.39 0 0 0 0 20.78h315.23a10.39 10.39 0 0 0 0-20.78ZM26.14 445.18a9.15 9.15 0 0 0 0 18.29h187.09a35.67 35.67 0 0 1-8.61-18.29ZM489.15 331.28 346.24 211.36a16.44 16.44 0 0 0-10.54-3.83h-.12a16.39 16.39 0 0 0-10.53 3.83L182.14 331.28a16.38 16.38 0 1 0 21.06 25.1l118.67-99.58a21.4 21.4 0 0 1 27.54 0l118.67 99.58a16.35 16.35 0 0 0 10.52 3.83 16.38 16.38 0 0 0 10.55-28.93Z" fill="#324554" opacity="1" data-original="#000000" class=""></path><path d="M263.65 226.66a18.77 18.77 0 0 1 18.77-18.77h28.11l6.81-5.72a28.38 28.38 0 0 1 18.24-6.64h.12a28.38 28.38 0 0 1 14.15 3.78v-118h-294v351.87h102.58V311a6.94 6.94 0 0 1 6.94-6.94h30.55l67.73-56.84Zm0-96.17a18.77 18.77 0 0 1 18.77-18.77h33.13a18.77 18.77 0 0 1 18.77 18.77v33.14a18.77 18.77 0 0 1-18.77 18.77h-33.12a18.77 18.77 0 0 1-18.77-18.77ZM142 356a18.77 18.77 0 0 1-18.77 18.77H90.1A18.77 18.77 0 0 1 71.33 356v-33.18a18.77 18.77 0 0 1 18.77-18.77h33.14A18.77 18.77 0 0 1 142 322.82Zm0-96.16a18.77 18.77 0 0 1-18.77 18.77H90.1a18.77 18.77 0 0 1-18.77-18.77v-33.18a18.77 18.77 0 0 1 18.77-18.77h33.14A18.77 18.77 0 0 1 142 226.66Zm0-96.16a18.77 18.77 0 0 1-18.77 18.77H90.1a18.77 18.77 0 0 1-18.77-18.77v-33.19a18.78 18.78 0 0 1 18.77-18.77h33.14A18.77 18.77 0 0 1 142 130.49Zm96.16 96.16a18.77 18.77 0 0 1-18.77 18.77h-33.12a18.77 18.77 0 0 1-18.77-18.77v-33.18a18.77 18.77 0 0 1 18.77-18.77h33.13a18.77 18.77 0 0 1 18.77 18.77ZM219.4 182.4h-33.13a18.77 18.77 0 0 1-18.77-18.77v-33.14a18.77 18.77 0 0 1 18.77-18.77h33.13a18.77 18.77 0 0 1 18.77 18.77v33.14a18.77 18.77 0 0 1-18.77 18.77Z" fill="#324554" opacity="1" data-original="#000000" class=""></path><path d="M455.07 439.78v-78.66L341.7 266a9.43 9.43 0 0 0-12.12 0l-113.37 95.13v78.65a23.72 23.72 0 0 0 23.69 23.69h55.82v-85.55a11.7 11.7 0 0 1 11.7-11.7h56.44a11.7 11.7 0 0 1 11.7 11.7v85.55h55.82a23.72 23.72 0 0 0 23.69-23.69Zm-119.43-91.2A21.39 21.39 0 1 1 357 327.19a21.39 21.39 0 0 1-21.36 21.39Z" fill="#324554" opacity="1" data-original="#000000" class=""></path><path d="M367.86 423.84h-12.44a6 6 0 0 1 0-12h12.44a6 6 0 0 1 0 12Z" fill="#324554" opacity="1" data-original="#000000" class=""></path></g></g></svg>