<?xml version="1.0" encoding="utf-8"?>
<!-- Generator: Adobe Illustrator 27.8.1, SVG Export Plug-In . SVG Version: 6.00 Build 0)  -->
<svg version="1.1" id="Layer_1" xmlns="http://www.w3.org/2000/svg" xmlns:xlink="http://www.w3.org/1999/xlink" x="0px" y="0px"
	 viewBox="0 0 16 16" style="enable-background:new 0 0 16 16;" xml:space="preserve">
<style type="text/css">
	.st0{fill:#334455;}
</style>
<g id="Mask_Group_30" transform="translate(-318 -487)">
	<g id="direction" transform="translate(318 473.634)">
		<path id="Path_18133" class="st0" d="M10.2,17.1c0.1-0.1,0-0.2,0-0.3l-2-2.7c0,0-0.1-0.1-0.2-0.1c-0.1,0-0.2,0-0.2,0.1L6,16.8
			c-0.1,0.1-0.1,0.2,0,0.3c0,0.1,0.2,0.2,0.3,0.2h0.5V20C8,20.7,9,21.7,9.6,23.1v-5.8h0.5C10.1,17.3,10.2,17.2,10.2,17.1z"/>
		<path id="Path_18134" class="st0" d="M12.8,19.2c-0.1-0.1-0.2-0.1-0.3,0c-0.1,0.1-0.2,0.2-0.2,0.3V20h-0.1c-0.7,0-1.5,0.2-2.2,0.4
			v3.5c0.5-0.6,1.2-0.9,1.9-0.9h0.4v0.5c0,0.1,0.1,0.2,0.2,0.3c0.1,0.1,0.2,0,0.3,0l2.6-2c0.1-0.1,0.1-0.2,0.1-0.2
			c0-0.1,0-0.2-0.1-0.3L12.8,19.2z"/>
		<path id="Path_18135" class="st0" d="M0.7,21.7l2.6,2c0.1,0.1,0.2,0.1,0.3,0c0.1-0.1,0.2-0.2,0.2-0.3v-0.5h0.3
			c1.4,0,2.6,1.2,2.5,2.6v3c0,0.2,0.1,0.3,0.3,0.3l0,0h2.3c0.2,0,0.3-0.1,0.3-0.3l0,0v-2.8c0.1-3.2-2.5-5.8-5.6-5.9H3.7v-0.5
			c0-0.1-0.1-0.2-0.2-0.3c-0.1-0.1-0.2,0-0.3,0l-2.6,2c-0.1,0.1-0.1,0.2-0.1,0.3C0.6,21.6,0.6,21.7,0.7,21.7L0.7,21.7z"/>
	</g>
</g>
</svg>
