<?xml version="1.0" encoding="utf-8"?>
<!-- Generator: Adobe Illustrator 27.8.1, SVG Export Plug-In . SVG Version: 6.00 Build 0)  -->
<svg version="1.1" id="Layer_1" xmlns="http://www.w3.org/2000/svg" xmlns:xlink="http://www.w3.org/1999/xlink" x="0px" y="0px"
	 viewBox="0 0 16 16" style="enable-background:new 0 0 16 16;" xml:space="preserve">
<style type="text/css">
	.st0{fill:#334455;}
</style>
<g id="Mask_Group_25" transform="translate(-320 -353)">
	<path id="home_3_" class="st0" d="M335.2,360L335.2,360l-6.1-6.1c-0.5-0.5-1.4-0.5-2,0l0,0l-6.1,6.1l0,0c-0.5,0.5-0.5,1.4,0,2
		c0.2,0.2,0.6,0.4,0.9,0.4l0,0h0.2v4.5c0,0.9,0.7,1.6,1.6,1.6h2.4c0.2,0,0.4-0.2,0.4-0.4v-3.5c0-0.4,0.3-0.7,0.7-0.7h1.4
		c0.4,0,0.7,0.3,0.7,0.7v3.5c0,0.2,0.2,0.4,0.4,0.4l0,0h2.4c0.9,0,1.6-0.7,1.6-1.6v-4.5h0.2c0.8,0,1.4-0.6,1.4-1.4
		C335.6,360.6,335.5,360.3,335.2,360z"/>
</g>
</svg>
