<?xml version="1.0" encoding="UTF-8"?>
<svg id="Line" xmlns="http://www.w3.org/2000/svg" version="1.1" viewBox="0 0 64 64">
  <defs>
    <style>
      .cls-1 {
        fill: #324554;
      }

      .cls-1, .cls-2 {
        stroke-width: 0px;
      }

      .cls-2 {
        fill: #fff;
      }
    </style>
  </defs>
  <g>
    <path class="cls-1" d="M15.8,59.6h32.3c2.7,0,4.8-2.2,4.8-4.8V20.6h-11.3c-2.7,0-4.8-2.2-4.8-4.8V4.4H15.8c-2.7,0-4.8,2.2-4.8,4.8v45.4c0,2.7,2.2,4.8,4.8,4.8Z"/>
    <path class="cls-1" d="M41.7,17.4h10.4l-12-12v10.4c0,.9.7,1.6,1.6,1.6Z"/>
  </g>
  <path class="cls-2" d="M35.8,35.4c0,.7.5,1.3,1.3,1.3s1.3-.5,1.3-1.3c0-3-2.1-5.6-5.1-6.1v-2.1c0-.7-.5-1.3-1.3-1.3s-1.3.5-1.3,1.3v2.1c-2.8.7-5.1,3.1-5.1,6.1s2.1,5.6,5.1,6.1v7.4c-1.5-.5-2.5-2-2.5-3.6s-.5-1.3-1.3-1.3-1.3.5-1.3,1.3c0,3,2.1,5.6,5.1,6.1v2.1c0,.7.5,1.3,1.3,1.3s1.3-.5,1.3-1.3v-2.1c2.8-.7,5.1-3.1,5.1-6.1s-2.1-5.6-5.1-6.1v-7.4c1.5.5,2.5,2,2.5,3.6ZM30.7,39.1c-1.5-.5-2.5-2-2.5-3.6s1-3,2.5-3.6v7.2ZM35.8,45.6c0,1.6-1,3-2.5,3.6v-7.1c1.5.5,2.5,2,2.5,3.6v-.2Z"/>
</svg>