<?xml version="1.0" encoding="UTF-8"?>
<svg id="Line" xmlns="http://www.w3.org/2000/svg" version="1.1" viewBox="0 0 64 64">
  <defs>
    <style>
      .cls-1 {
        fill: #324554;
        stroke-width: 0px;
      }
    </style>
  </defs>
  <path class="cls-1" d="M15.8,59.6h32.3c2.7,0,4.8-2.2,4.8-4.8V20.6h-11.3c-2.7,0-4.8-2.2-4.8-4.8V4.4H15.8c-2.7,0-4.8,2.2-4.8,4.8v45.4c0,2.7,2.2,4.8,4.8,4.8ZM22.3,27.2h19.4c.9,0,1.6.7,1.6,1.6s-.7,1.6-1.6,1.6h-19.4c-.9,0-1.6-.7-1.6-1.6s.7-1.6,1.6-1.6ZM25.9,49.8c.5-.3,1-.6,1.5-1-.3-1.4-.2-3.2.5-5.5.6-2.2,2.8-6.3,5.6-5.6.5.2,1.2.7,1.2,2.1,0,1.1-.4,2.3-.5,2.6-1,2.5-2.3,4.6-3.9,6.3,1.3-.2,2.5-1.4,3.9-3.6.5-.8,1.9-.4,1.8.5v1.3l1.6-1.7c.9-.9,2.3.4,1.4,1.4l-3.3,3.5c-.6.6-1.8.2-1.7-.7v-.8c-1.7,1.8-3.5,2.7-5.5,1.7-.9.5-2.2,2-3,.7-.3-.5,0-1.1.4-1.4h0Z"/>
  <path class="cls-1" d="M41.7,17.4h10.4l-12-12v10.4c0,.9.7,1.6,1.6,1.6Z"/>
  <path class="cls-1" d="M29.2,47.1c1.5-1.9,3.6-4.7,3.5-7.3-2.2,1.2-3.3,5-3.5,7.3h0Z"/>
</svg>