<?xml version="1.0" encoding="utf-8"?>
<!-- Generator: Adobe Illustrator 27.8.1, SVG Export Plug-In . SVG Version: 6.00 Build 0)  -->
<svg version="1.1" id="Capa_1" xmlns="http://www.w3.org/2000/svg" xmlns:xlink="http://www.w3.org/1999/xlink" x="0px" y="0px"
	 viewBox="0 0 16 16" style="enable-background:new 0 0 16 16;" xml:space="preserve">
<style type="text/css">
	.st0{fill:#334455;}
</style>
<g>
	<g>
		<g>
			<path class="st0" d="M10.4,2.8l-3.6,5h2.1l3.6-5C12.4,2.8,10.4,2.8,10.4,2.8z"/>
			<path class="st0" d="M15.2,2.8h-1.6l-3.6,5h2.1L15.4,3C15.4,2.9,15.2,2.8,15.2,2.8z"/>
			<path class="st0" d="M7.2,2.8l-3.6,5h2.1l3.6-5C9.3,2.8,7.2,2.8,7.2,2.8z"/>
			<path class="st0" d="M13.1,7.8h2c0.2,0,0.4-0.2,0.4-0.4v-3L13.1,7.8z"/>
			<path class="st0" d="M3.1,2.8h-2C0.8,2.8,0.6,3,0.6,3.3v3L3.1,2.8z"/>
			<path class="st0" d="M4.2,2.8L0.7,7.7C0.8,7.8,0.9,7.9,1,7.9h1.6l3.6-5L4.2,2.8L4.2,2.8z"/>
		</g>
		<path class="st0" d="M14.4,13.8h-2.6c-0.5,0-0.9,0.4-0.9,0.9v0.4c0,0.2,0.2,0.4,0.4,0.4h3.5c0.2,0,0.4-0.2,0.4-0.4v-0.4
			C15.2,14.2,14.9,13.8,14.4,13.8z"/>
		<path class="st0" d="M4.4,13.8H1.8c-0.5,0-0.9,0.4-0.9,0.9v0.4c0,0.2,0.2,0.4,0.4,0.4h3.5c0.2,0,0.4-0.2,0.4-0.4v-0.4
			C5.2,14.2,4.9,13.8,4.4,13.8z"/>
	</g>
	<path class="st0" d="M11.9,1.6V2h2.2V1.6c0-0.6-0.5-1.1-1.1-1.1S11.9,1,11.9,1.6z"/>
	<path class="st0" d="M2,1.6V2h2.2V1.6c0-0.6-0.5-1.1-1.1-1.1S2,1,2,1.6z"/>
	<path class="st0" d="M12.2,8.7H14v4.2h-1.8V8.7z"/>
	<path class="st0" d="M2.2,8.7H4v4.2H2.2V8.7z"/>
	<path class="st0" d="M4.9,10h6.5v1.8H4.9V10z"/>
</g>
</svg>
